<?xml version="1.0" encoding="UTF-8"?>
<svg width="48px" height="46px" viewBox="0 0 48 46" version="1.1" xmlns="http://www.w3.org/2000/svg"
    xmlns:xlink="http://www.w3.org/1999/xlink">
    <title>cat</title>
    <g stroke="none" stroke-width="1" fill="none" fill-rule="evenodd">
        <g id="mint" transform="translate(-1811.000000, -1005.000000)" fill="#000000">
            <path
                d="M1823.21818,1005 L1836.17818,1021.48395 C1836.95491,1021.62409 1837.74036,1021.78175 1838.52582,1021.99196 C1840.20955,1022.44634 1841.84384,1023.06838 1843.40436,1023.84881 L1843.40436,1023.84881 L1859,1013.67116 L1853.38836,1035.30525 C1853.72702,1036.78834 1853.77445,1038.32346 1853.528,1039.82476 L1853.528,1039.82476 L1858.12727,1041.23492 L1857.41164,1043.97641 L1852.80364,1042.46114 C1852.36251,1043.54703 1851.75601,1044.55757 1851.00582,1045.45663 L1851.00582,1045.45663 L1856.13745,1048.41709 L1854.49673,1050.35277 L1849.26036,1047.21714 C1845.91802,1049.78246 1841.79793,1051.11542 1837.592,1050.99216 C1835.36982,1050.99029 1833.15748,1050.69582 1831.01164,1050.11628 C1824.17818,1048.27695 1819.03782,1044.03772 1816.90836,1039.10654 L1816.90836,1039.10654 L1811.13091,1039.75469 L1811.13091,1036.96941 L1816.11418,1036.57527 C1815.86718,1035.41016 1815.79366,1034.21473 1815.896,1033.02798 L1815.896,1033.02798 L1811,1031.72292 L1811.73309,1028.98144 L1816.50691,1030.30401 C1817.38292,1027.80397 1819.03862,1025.65394 1821.22836,1024.17289 L1821.22836,1024.17289 L1823.21818,1005 Z M1832.07636,1026.89686 C1827.38109,1026.89686 1823.39273,1028.72743 1822.05745,1031.75796 L1822.05745,1031.75796 L1824.77164,1032.48493 L1824.04727,1035.22642 L1821.62109,1034.57827 C1821.6698,1035.10852 1821.77812,1035.63153 1821.944,1036.13733 L1821.944,1036.13733 L1824.38764,1035.9534 L1824.38764,1038.28322 L1823.13091,1038.43212 C1825.46382,1041.49647 1828.77669,1043.66147 1832.51273,1044.56324 C1836.21885,1045.65641 1840.18787,1045.42738 1843.74473,1043.91509 L1843.74473,1043.91509 L1841.73745,1042.72391 L1842.70618,1040.65684 L1845.90909,1042.50494 C1846.49316,1041.9872 1846.97819,1041.36684 1847.34036,1040.67436 L1847.34036,1040.67436 L1843.84945,1039.53572 L1844.56509,1037.09203 L1847.95129,1038.12557 C1847.96,1033.86882 1843.36945,1029.31427 1837.04218,1027.56252 C1835.42232,1027.12723 1833.75327,1026.9035 1832.07636,1026.89686 Z M1837.01982,1034.15962 C1837.52505,1032.26727 1839.01027,1031.02246 1840.33715,1031.37928 C1841.66402,1031.7361 1842.33009,1033.55942 1841.82486,1035.45178 C1841.31963,1037.34413 1839.83441,1038.58894 1838.50753,1038.23212 C1837.18066,1037.8753 1836.51458,1036.05198 1837.01982,1034.15962 Z M1829.17891,1032.11707 C1829.68509,1030.20766 1831.16873,1028.97268 1832.49527,1029.33179 C1833.83055,1029.6909 1834.49382,1031.4952 1833.98764,1033.4046 C1833.48145,1035.31401 1831.99782,1036.54899 1830.67127,1036.18988 C1829.34473,1035.83077 1828.67273,1034.02647 1829.17891,1032.11707 Z M1849.73164,1026.54651 L1848.52727,1027.33479 C1848.80655,1027.5888 1849.06836,1027.85156 1849.32145,1028.11432 L1849.32145,1028.11432 L1849.73164,1026.54651 Z M1827.45091,1019.67965 L1827.25891,1021.61534 C1827.74764,1021.50147 1828.25382,1021.41388 1828.76,1021.34381 L1828.76,1021.34381 L1827.45091,1019.67965 Z"
                id="cat"></path>
        </g>
    </g>
</svg>