<svg xmlns="http://www.w3.org/2000/svg" xmlns:xlink="http://www.w3.org/1999/xlink" width="36" height="36"
  viewBox="0 0 36 36">
  <defs>
    <style>
      .cls-1,
      .cls-4 {
        fill: #fff;
      }

      .cls-2 {
        clip-path: url(#clip-path);
      }

      .cls-3 {
        clip-path: url(#clip-path-2);
      }

      .cls-4 {
        fill-rule: evenodd;
      }
    </style>
    <clipPath id="clip-path">
      <rect id="矩形_14" data-name="矩形 14" class="cls-1" width="36" height="36" transform="translate(1591 2901)" />
    </clipPath>
    <clipPath id="clip-path-2">
      <rect id="矩形_12" data-name="矩形 12" class="cls-1" width="27.513" height="26.182" transform="translate(0 0)" />
    </clipPath>
  </defs>
  <g id="蒙版组_2" data-name="蒙版组 2" class="cls-2" transform="translate(-1591 -2901)">
    <g id="Cosmos_The_Internet_of_Blockchains" data-name="Cosmos The Internet of Blockchains" class="cls-3"
      transform="translate(1595.244 2905.909)">
      <path id="路径_135" data-name="路径 135" class="cls-4"
        d="M4.684.012H22.225a2.69,2.69,0,0,1,2.684,2.7V26.194l-2.815-2.487L20.511,22.24l-1.676-1.558.694,2.422H4.684A2.69,2.69,0,0,1,2,20.407V2.708A2.69,2.69,0,0,1,4.684.012ZM16.308,16.048c.393.5.864,1.06.864,1.06a4.785,4.785,0,0,0,4.006-1.99,17.531,17.531,0,0,0-1.885-7.632,6.473,6.473,0,0,0-3.679-1.375l-.183.209a8.712,8.712,0,0,1,3.26,1.663,10.671,10.671,0,0,0-3.94-1.257,11.076,11.076,0,0,0-2.644.026,1.1,1.1,0,0,0-.193.021l-.029,0A9.831,9.831,0,0,0,8.912,7.6c-.484.223-.772.38-.772.38a8.832,8.832,0,0,1,3.443-1.715l-.131-.157A6.473,6.473,0,0,0,7.773,7.487a17.531,17.531,0,0,0-1.885,7.632,4.746,4.746,0,0,0,3.993,1.99s.484-.589.877-1.087a4.071,4.071,0,0,1-2.291-1.545s.131.092.367.223a.181.181,0,0,0,.052.039.529.529,0,0,0,.059.033A.529.529,0,0,1,9,14.8a7.672,7.672,0,0,0,.956.445,10.989,10.989,0,0,0,1.924.563,9.17,9.17,0,0,0,3.391.013,8.616,8.616,0,0,0,1.9-.563,7.491,7.491,0,0,0,1.505-.772A4.131,4.131,0,0,1,16.308,16.048Zm-6.56-3.6a1.34,1.34,0,1,1,2.671,0A1.4,1.4,0,0,1,11.084,13.9,1.4,1.4,0,0,1,9.749,12.45Zm4.778,0A1.34,1.34,0,1,1,15.862,13.9,1.395,1.395,0,0,1,14.527,12.45Z"
        transform="translate(-0.364 -0.012)" />
    </g>
  </g>
</svg>