<?xml version="1.0" encoding="UTF-8"?>
<svg width="160px" height="40px" viewBox="0 0 160 40" version="1.1" xmlns="http://www.w3.org/2000/svg"
    xmlns:xlink="http://www.w3.org/1999/xlink">
    <title>logo</title>
    <g stroke="none" stroke-width="1" fill="none" fill-rule="evenodd">
        <g id="mint" transform="translate(-32.000000, -32.000000)" fill="#000000" fill-rule="nonzero">
            <path
                d="M54.3315474,32.3895717 C54.752038,32.3868581 55.1569395,32.5490032 55.4593948,32.8414692 C55.7674824,33.1240688 55.9416378,33.5240567 55.9387299,33.9423727 C55.9461841,34.3558765 55.7829738,34.7541547 55.487591,35.0432762 C53.4161112,37.2676658 51.8371248,41.50191 50.7506318,47.7460088 L50.7506318,47.7460088 L53.5702504,48.1412049 C57.1417672,48.7471723 59.8861959,48.9729987 61.8035365,48.818684 C62.2192785,46.0707605 62.8222031,43.35451 63.6080923,40.6889351 C63.7082908,40.4527062 63.7838808,40.2067592 63.8336618,39.9549995 C64.0930667,39.0178201 64.3242755,38.2782388 64.5103703,37.7531925 C64.6964651,37.2281462 64.9897054,36.5506671 65.384452,35.7207553 C65.716847,34.9810156 66.1855711,34.3106473 66.7660651,33.7447747 C67.2779888,33.2667562 67.8967356,32.9183148 68.570621,32.7285561 C69.9077638,32.2958218 71.3740962,32.6196458 72.4053022,33.5754049 C73.2201451,34.3180157 73.8069451,35.2775472 74.0970733,36.3417778 C74.4428401,37.4159589 74.5487206,38.5530615 74.4072313,39.6727165 C73.8057127,44.1516059 72.0951441,47.444907 69.2755256,49.5526197 C67.8547801,50.5640298 66.2429645,51.2748047 64.5385665,51.6415135 C64.5283133,51.6928376 64.5177339,51.7466814 64.5068325,51.8030361 L64.437594,52.1712298 C64.3402145,52.7021508 64.2227692,53.3926942 64.0874275,54.2385166 C63.5197443,57.4791248 63.1625926,59.9067581 63.0159725,61.5214166 C62.8943802,63.0743459 62.9397543,64.6358586 63.1513141,66.1790852 C63.3580862,67.5528622 63.7171176,68.5126242 64.2284084,69.0583713 C64.5250679,69.3563142 64.6791769,69.7677396 64.6513512,70.187503 C64.6316052,70.6268548 64.4266615,71.037209 64.0874275,71.3166348 C63.7923101,71.5780461 63.4099552,71.7190741 63.0159725,71.7118309 C62.5651236,71.72864 62.1305047,71.5421627 61.8317327,71.2037216 C60.1775565,69.3971108 59.5196455,66.1038097 59.8579997,61.3238185 C60.0829057,58.7663911 60.4405405,56.2224074 60.9294547,53.702179 C61.0760749,52.9908259 61.1719419,52.443197 61.2114166,52.0649379 C58.468853,52.0769284 55.7312178,51.8312057 53.0345228,51.3310022 C52.1406397,51.1587934 51.2364098,51.045636 50.3276891,50.9922627 C50.2611343,50.9482322 50.181541,50.9283112 50.1021196,50.9358061 C50.0890306,51.1259545 50.0607439,51.3147473 50.017531,51.500372 C49.9611386,51.7826549 49.9103855,52.0028356 49.8765501,52.1496228 C49.677767,53.2251208 49.5138767,54.1005508 49.380121,54.7806763 L49.2953627,55.2052115 L49.2953627,55.2052115 L49.256234,55.3958766 C49.1039746,56.1298123 48.8840444,57.1516766 48.5795256,58.4727608 C48.2750068,59.793845 48.0156019,60.8157092 47.7900324,61.5496449 C47.5644629,62.2835805 47.2599441,63.186886 46.8877544,64.2595612 C46.6002721,65.1340565 46.222269,65.9760712 45.759907,66.7718794 C45.3820781,67.3759649 44.9309392,68.0421526 44.4064901,68.7760883 C43.9543057,69.4206152 43.379372,69.9693428 42.714719,70.3907468 C42.0999555,70.7786608 41.4459235,71.1003719 40.763543,71.3505088 C39.9937101,71.6208672 39.1826436,71.7546067 38.3668672,71.7457049 C35.5838633,71.7825796 33.1170096,69.9591836 32.3328836,67.2856343 C31.8795835,65.9090992 31.8894878,64.4217523 32.3610798,63.0513902 C32.838658,61.6458501 33.7613192,60.4347171 34.9889642,59.6018925 C35.3380079,59.3467749 35.7757312,59.2448629 36.2014002,59.3196096 C36.6142701,59.3877741 36.9811624,59.6224445 37.2164629,59.9688604 C37.4556824,60.3143245 37.5470485,60.7411848 37.4702285,61.1544488 C37.4054936,61.5695713 37.1832963,61.9436922 36.8499125,62.1988957 C36.1173041,62.686402 35.5785427,63.4155569 35.3273185,64.2595612 C35.1000214,64.9276032 35.1000214,65.6521846 35.3273185,66.3202267 C35.5580159,66.9298958 35.9357888,67.4729567 36.4269697,67.9010112 C36.9669308,68.3643973 37.6618589,68.6063866 38.3725065,68.5784902 C38.9841151,68.5856758 39.590056,68.460498 40.1488661,68.2115224 C40.7320418,67.9376087 41.2436367,67.5317322 41.643264,67.025934 C42.0944029,66.4839508 42.4947888,65.9476132 42.8556999,65.4169212 C43.2974921,64.71139 43.6480465,63.9525714 43.8989588,63.1586577 C44.237313,62.1819587 44.5192749,61.3464012 44.7448444,60.6463395 C44.9704138,59.9500415 45.2241795,58.9620512 45.5061414,57.6823685 C45.7918627,56.4026858 46.0080335,55.4052861 46.1546536,54.6901693 C46.3012738,53.9750525 46.5080458,52.9211962 46.7749697,51.5286003 C46.7679292,51.4629228 46.7679292,51.3966797 46.7749697,51.3310022 C46.7892902,51.2659347 46.7987154,51.1998833 46.8031659,51.1334042 C43.4948135,51.6226946 41.2391186,52.5448189 40.0360814,53.899777 C39.4062824,54.5833341 39.1531719,55.5335793 39.359373,56.4403235 C39.4381252,56.8665802 39.3359547,57.3064138 39.0774111,57.6541402 C38.8309987,58.002185 38.4549556,58.2362077 38.0341522,58.303391 C37.6171972,58.3855549 37.1851453,58.2825682 36.8499125,58.021108 C36.5048526,57.7846052 36.2707384,57.4177484 36.2014002,57.0048894 C35.8305044,55.1209757 36.3745835,53.1726303 37.6676018,51.7544266 C39.5811829,49.6090762 42.833143,48.3105747 47.423482,47.858922 C47.9254326,44.4197842 48.8145719,41.0485712 50.0739234,37.8096491 C49.1288579,38.0369453 48.1671034,38.1879805 47.1979125,38.2613018 C45.2016226,38.374215 43.8707626,38.9049069 43.1940542,39.8420863 C42.9179299,40.2118452 42.75177,40.6521812 42.714719,41.1123596 C42.6756652,41.4883881 42.6851419,41.8678862 42.7429152,42.2414913 C42.7654382,42.413865 42.8031808,42.5839004 42.8556999,42.7496006 C42.9289783,42.9479832 42.9484362,43.1622636 42.9120923,43.3706231 C42.8781226,43.5774508 42.8114987,43.7775502 42.714719,43.9634173 C42.6183069,44.1332138 42.4944442,44.2858338 42.3481686,44.41507 C42.1838557,44.5567767 41.9917753,44.6625412 41.7842449,44.7255813 C41.3773346,44.8406073 40.9414991,44.789871 40.5718089,44.5844398 C40.193375,44.4013516 39.9148331,44.0605238 39.8105119,43.6529061 C39.7178299,43.3278252 39.6425331,42.9980267 39.5849424,42.6649158 C39.5134009,41.9775479 39.5418941,41.2834234 39.669531,40.6042503 C39.7751993,39.6866321 40.1150625,38.811703 40.6563975,38.0637037 C41.8970296,36.2570929 44.0399397,35.278512 47.0851277,35.1279611 C48.2258766,35.0603479 49.3487815,34.8126465 50.4122776,34.3940254 C51.1410088,34.1401852 51.8405006,33.8089677 52.4987953,33.4060351 L52.4987953,33.4060351 L53.2318961,32.8414692 C53.5206888,32.5457501 53.9185139,32.3823539 54.3315474,32.3895717 Z M76.4317174,51.2463173 C76.7241977,50.5714839 77.4808001,50.2294034 78.1798809,50.4559251 C78.5285322,50.5206262 78.8458778,50.6993364 79.0821589,50.9640344 C79.3170224,51.2382369 79.4398717,51.5910746 79.4261523,51.9520247 L79.4261523,51.9520247 L80.4976074,70.0181333 C80.5328686,70.433644 80.3892469,70.8444591 80.1028608,71.1472651 C79.821242,71.4798366 79.4104338,71.6751927 78.9750134,71.6836027 C78.5624747,71.7007222 78.158999,71.5593449 77.8471659,71.2884065 C77.5075656,71.0147833 77.318969,70.5952023 77.3396346,70.1592747 L77.3396346,70.1592747 L77.1140651,66.6589662 L71.8357392,66.6589662 L69.5800444,70.8367538 C69.4470896,71.0878484 69.2531611,71.3014127 69.0161207,71.4577763 C68.7703027,71.6087888 68.4868188,71.6870803 68.1984313,71.6836027 C67.9367527,71.6849941 67.6808976,71.6062989 67.4653305,71.4577763 C67.0883468,71.2728516 66.8104399,70.9328008 66.7040335,70.5262426 C66.5667492,70.1268807 66.5972758,69.6888339 66.788622,69.3124259 L66.788622,69.3124259 Z M76.6008945,57.7388251 L73.5557065,63.4409406 L76.9392488,63.4409406 L76.6008945,57.7388251 Z M69.7210253,35.7264009 C69.6248669,35.7319544 69.5299586,35.7509577 69.4390635,35.7828575 C68.6495703,36.0124477 67.8036847,37.6873265 66.9014068,40.807494 C66.8275235,41.0777186 66.7332656,41.3419412 66.6194449,41.5978862 C65.9841465,43.7491127 65.4757379,45.9358741 65.0968509,48.1468506 C65.9072047,47.8748782 66.6687662,47.4746031 67.3525458,46.9612622 C69.4541014,45.4181154 70.751126,42.8399312 71.2436193,39.2267095 C71.3510825,38.6129388 71.3026013,37.9819659 71.1026384,37.3918703 C70.960442,36.8486895 70.6785096,36.3523128 70.284949,35.9522273 C70.1272689,35.8162974 69.9288456,35.7368377 69.7210253,35.7264009 Z M91.883227,51.020491 C89.5561018,50.309138 87.6575587,50.7438537 86.1875976,52.3246382 C85.4718525,53.0392409 84.9900122,53.9547956 84.8059845,54.9498696 C84.5914573,55.9222083 84.68003,56.9370289 85.0597501,57.8573839 C85.2846606,58.4129637 85.5989827,58.9278946 85.9902243,59.3817119 C86.3371768,59.8212165 86.7140218,60.236218 87.1180717,60.6237568 C87.433869,60.9286224 87.9132041,61.3407555 88.5560771,61.8658018 C89.4583551,62.656194 90.1407027,63.3054448 90.6143987,63.8135541 C91.0378983,64.2287898 91.3065716,64.7767104 91.3756957,65.3661103 C91.4730158,66.5267944 90.9049088,67.6424272 89.909494,68.2453964 C88.8497988,68.9617192 87.4796644,69.027038 86.3567747,68.4147661 C85.8439149,68.1252348 85.4607074,67.650728 85.2853196,67.0880363 C85.0583995,66.474141 85.0786198,65.7959919 85.341712,65.1967405 C85.5188831,64.8115744 85.5188831,64.36809 85.341712,63.9829239 C85.1777013,63.5932516 84.862026,63.2874115 84.4676303,63.136075 C84.0788667,62.9782061 83.6439578,62.9782061 83.2551943,63.136075 C82.8607985,63.2874115 82.5451232,63.5932516 82.3811125,63.9829239 C81.8166007,65.3208588 81.7763311,66.8226099 82.2683278,68.1889398 C82.6727245,69.546243 83.6371729,70.6658662 84.9187692,71.2658239 C85.8831056,71.7443119 86.9440803,71.9953733 88.0203496,71.9997596 C89.2953077,72.0105478 90.5470373,71.658098 91.6294613,70.9835409 C92.550996,70.3642247 93.2985048,69.5186751 93.8005676,68.5276793 C94.3084102,67.523553 94.5510793,66.4060039 94.5054722,65.2814254 C94.4526221,64.4439715 94.2013231,63.6311577 93.7723714,62.9102487 C93.4150387,62.2503299 92.96916,61.6424845 92.4471507,61.1036378 C92.0148092,60.6896228 91.3850944,60.1438758 90.5580063,59.4663967 C89.0542097,58.2243518 88.1895267,57.3022275 87.9639572,56.7000239 C87.843265,56.3551858 87.8236967,55.9829653 87.9075649,55.6273487 C87.9687484,55.1998602 88.1665969,54.8037125 88.4714886,54.4982169 C89.0354123,53.933651 89.8437029,53.8019189 90.8963605,54.1030208 C91.5919884,54.317009 92.1524103,54.8365091 92.4189545,55.5144355 C92.7154761,56.075592 92.7362917,56.7424492 92.4753469,57.3210463 C92.2518144,57.6841381 92.1904551,58.1243805 92.3061698,58.534863 C92.3995361,58.9462735 92.6671469,59.2966247 93.0392706,59.494625 C93.3984253,59.7009263 93.8260157,59.7518879 94.2235104,59.6357665 C94.6283738,59.5295754 94.9737382,59.2651725 95.1821807,58.9018308 C95.9761653,57.5195546 96.0600487,55.8399764 95.4077502,54.3853037 C94.8285207,52.7701106 93.5222627,51.5230445 91.883227,51.020491 Z M149.459837,50.738208 C149.721928,50.814175 149.963094,50.9493815 150.164742,51.1334042 C150.369338,51.317914 150.524449,51.5508449 150.615881,51.8108832 C150.686329,52.0312029 150.700419,52.2647386 150.65815,52.4903447 L150.615881,52.6577321 L147.909047,65.3604647 C147.645883,66.6025096 147.777465,67.5434528 148.303794,68.1832941 C148.742446,68.6395505 149.366283,68.8685515 149.995565,68.8043166 C150.373361,68.8125307 150.751066,68.7841706 151.123412,68.7196317 C151.460718,68.6378923 151.776268,68.48379 152.048247,68.267979 C152.421789,67.9885989 152.731347,67.6324902 152.956164,67.2235321 C153.28181,66.6272428 153.55539,66.0039028 153.773854,65.3604647 C154.033195,64.5936726 154.246716,63.8122931 154.413347,63.0204765 L154.529512,62.424722 L156.785206,51.980253 C156.895794,51.5776955 157.145613,51.2275508 157.490111,50.9922627 C157.835396,50.753191 158.265457,50.6711815 158.674351,50.7664363 C159.089853,50.8502683 159.456157,51.0933983 159.695053,51.4439154 C159.909701,51.7537392 159.992061,52.1339625 159.928594,52.5013224 L159.892426,52.6577321 L157.693124,63.1022011 L157.473193,64.1748763 C157.411162,64.1748763 157.411162,64.2143959 157.411162,64.2877895 C157.220336,65.0906673 156.985003,65.8822848 156.706257,66.6589662 C156.44632,67.3711709 156.12754,68.0604455 155.753226,68.7196317 C155.400112,69.3499359 154.951113,69.9213472 154.422366,70.4133294 C153.882746,70.9092184 153.25022,71.2930038 152.561418,71.5424612 C151.747933,71.8355529 150.888223,71.979001 150.023761,71.9658856 C148.437371,72.0592788 146.896951,71.4132331 145.850726,70.2157313 C145.342897,69.5229763 145.004848,68.7204056 144.863859,67.8727829 C144.717435,67.1960423 144.651186,66.5043834 144.666486,65.8121174 C144.685681,65.5587798 144.71721,65.3066069 144.760938,65.0564952 L144.835663,64.6829856 L147.542497,51.980253 C147.650792,51.5766069 147.901131,51.2257325 148.247401,50.9922627 C148.602396,50.7511221 149.038045,50.659836 149.459837,50.738208 Z M164.635024,50.3994685 C165.304926,50.3860633 165.908858,50.7851046 166.164633,51.3948004 L166.214011,51.5286003 L169.699059,63.5538538 L172.236716,51.6415135 C172.345011,51.2378674 172.59535,50.886993 172.941621,50.6535231 C173.296221,50.4102171 173.740683,50.3377804 174.154057,50.4559251 C174.417916,50.4946079 174.663773,50.6127536 174.858961,50.7946646 C175.073287,50.984335 175.232958,51.2280136 175.321379,51.500372 C175.398325,51.7107042 175.420036,51.9363109 175.385776,52.1558292 L175.349575,52.3189925 L171.514894,70.3851011 C171.51433,70.4145819 171.504934,70.4428453 171.488413,70.4664741 L171.458501,70.4980143 L171.458501,70.6109275 C171.422576,70.6528762 171.393978,70.7005932 171.373913,70.7520689 C171.35945,70.8061077 171.330145,70.8550051 171.289324,70.8932104 C171.28876,70.9226912 171.279365,70.9509546 171.262844,70.9745834 L171.232932,71.0061236 L171.176539,71.0625802 L171.176539,71.1190368 C171.116351,71.1506368 171.059648,71.1884825 171.007362,71.2319499 C171.007362,71.2884065 170.990445,71.2884065 170.95097,71.2884065 C170.888493,71.3600932 170.811635,71.4178023 170.7254,71.4577763 C170.682523,71.4633264 170.642777,71.4832217 170.612616,71.5142329 C170.561349,71.5459095 170.503436,71.5652359 170.443439,71.5706895 L170.356607,71.5921805 L170.356607,71.5921805 L170.274261,71.6271461 L170.217869,71.6271461 C170.127728,71.6617258 170.032399,71.6808132 169.935907,71.6836027 C169.883511,71.683156 169.831685,71.6744072 169.782315,71.6578282 L169.710338,71.6271461 L169.541161,71.6271461 C169.488739,71.59802 169.431377,71.5788776 169.371984,71.5706895 C169.343061,71.5380229 169.302656,71.5177977 169.259199,71.5142329 L169.178943,71.4512691 L169.178943,71.4512691 L169.090022,71.4013197 L169.033629,71.3448631 C168.977309,71.3162925 168.924607,71.2812931 168.876545,71.240633 L168.80806,71.1754934 L168.751667,71.1190368 L168.688775,71.03869 L168.688775,71.03869 L168.638883,70.949667 L168.58249,70.8932104 C168.564468,70.8513227 168.541475,70.8118538 168.514065,70.7756327 L168.469706,70.7238406 L168.469706,70.6109275 C168.447953,70.5916235 168.431723,70.5672109 168.422265,70.5401898 L168.413313,70.4980143 L164.916986,58.4727608 L162.37933,70.3851011 C162.290816,70.8051284 162.036631,71.171573 161.674425,71.4013197 C161.323618,71.627424 160.895278,71.6988953 160.490185,71.5989178 C160.075081,71.5177582 159.709609,71.2738333 159.475122,70.9214387 C159.262472,70.6108102 159.180494,70.2313031 159.24238,69.8640362 L159.277749,69.707622 L163.11243,51.6415135 C163.188321,51.4218498 163.292591,51.2130705 163.422588,51.020491 C163.561765,50.8285133 163.745669,50.6734704 163.958316,50.5688383 C164.167458,50.4599306 164.399295,50.4019053 164.635024,50.3994685 Z M102.597777,50.4559251 C102.868476,50.4996367 103.122029,50.6167943 103.330878,50.7946646 C103.550239,50.9777958 103.70779,51.2242499 103.782017,51.500372 C103.835442,51.7003965 103.859569,51.9067534 103.853955,52.113009 L103.83841,52.3189925 L101.808284,61.6343298 L108.180622,61.6343298 L110.323532,51.6415135 C110.397128,51.2302619 110.643576,50.8704493 111.000241,50.6535231 C111.345849,50.4142682 111.780045,50.3418199 112.18448,50.4559251 C112.466918,50.4880848 112.732671,50.6063315 112.945777,50.7946646 C113.149648,50.9858821 113.29613,51.2302968 113.36872,51.500372 C113.414342,51.6960493 113.432202,51.8968445 113.422052,52.0968653 L113.402556,52.2964099 L109.511482,70.3625185 C109.357145,71.1141381 108.69894,71.6554226 107.932496,71.6610309 C107.817329,71.661554 107.70291,71.6424626 107.594141,71.6045634 C107.189376,71.4995093 106.837813,71.2481065 106.607275,70.8988561 C106.391949,70.5893068 106.309458,70.2088382 106.373462,69.8414471 L106.409902,69.6850394 L107.424964,64.8297727 L101.109019,64.8297727 L99.9247791,70.3625185 C99.770442,71.1141381 99.1122366,71.6554226 98.3457927,71.6610309 C98.2306255,71.661554 98.1162074,71.6424626 98.0074385,71.6045634 C97.6026732,71.4995093 97.2511097,71.2481065 97.020572,70.8988561 C96.8052455,70.5893068 96.7227552,70.2088382 96.7867594,69.8414471 L96.8231987,69.6850394 L100.65788,51.6189308 C100.762815,51.2137046 101.013931,50.8617407 101.362785,50.6309405 C101.726737,50.3883853 102.18088,50.3240269 102.597777,50.4559251 Z M137.335478,32.4745014 C139.500242,32.9922015 141.49861,34.0507942 143.143892,35.5513855 C144.566219,36.8853649 145.63247,38.5544922 146.245472,40.4066522 C146.923327,42.3825699 147.173233,44.4803229 146.978573,46.5604204 C146.820508,48.7450868 146.177006,50.8668197 145.095068,52.7706452 C144.044825,54.6106474 142.576606,56.177242 140.809248,57.343629 C138.855276,58.6371409 136.623423,59.4496482 134.295929,59.7148057 C132.238798,59.9801961 130.150315,59.7225969 128.22239,58.9688558 L127.839003,58.8115003 L127.387864,58.5856739 C127.049509,60.1325845 126.716794,61.46496 126.400997,62.5940918 C126.062517,63.7714869 125.638442,64.9225103 125.132169,66.0379437 C124.691615,67.0564398 124.123105,68.0145227 123.440398,68.8890015 C122.819319,69.6387948 122.051711,70.2535812 121.184703,70.6956123 C120.261355,71.1727667 119.234916,71.4151272 118.195907,71.4013197 C116.999647,71.4168489 115.831161,71.0401281 114.868757,70.3286445 C113.890855,69.621799 113.176436,68.6085524 112.838632,67.4493585 C112.422023,66.2406492 112.431975,64.925475 112.866828,63.7232236 C113.297721,62.4807179 114.118727,61.4112037 115.207112,60.6745677 C115.525984,60.4244424 115.936029,60.3218143 116.334959,60.3922848 C116.753987,60.4641889 117.128363,60.6971738 117.378218,61.0415356 C117.63342,61.3799886 117.735651,61.8098493 117.66018,62.227124 C117.587435,62.653531 117.342726,63.0312204 116.983471,63.2715709 C115.814269,64.1410023 115.43832,65.2136775 115.855624,66.4895964 C116.12378,67.5417671 117.083438,68.2681886 118.167711,68.2397507 C119.024873,68.2427178 119.851214,67.9198763 120.479798,67.3364453 C121.265222,66.5761132 121.871979,65.6504781 122.256158,64.626529 C122.749716,63.4608056 123.1642,62.2630912 123.49679,61.0415356 C123.812587,59.8559472 124.145302,58.3824302 124.483656,56.6096933 C123.035181,55.1477544 122.07055,53.2754214 121.72043,51.2463173 C121.641666,50.8330292 121.733193,50.4054176 121.974196,50.060729 C122.19982,49.6995908 122.569501,49.4528558 122.989259,49.3832499 C123.411011,49.307929 123.845515,49.3989751 124.201695,49.6373045 C124.566508,49.8721172 124.812976,50.2525212 124.878403,50.6817514 C124.981519,51.2210645 125.132497,51.7500904 125.329542,52.2625359 C125.365328,52.1651616 125.394063,52.065404 125.415552,51.9640391 L125.442327,51.8108832 L125.498719,51.4721437 C125.827621,49.6051147 126.26064,47.7579776 126.795744,45.9393979 C126.057938,45.7244862 125.381533,45.3375287 124.822011,44.8102662 C123.78961,43.9461539 123.091426,42.7479049 122.848278,41.4228708 C122.585642,40.0482141 122.763263,38.6256336 123.355809,37.3579964 C123.955932,36.0725772 124.888559,34.9712535 126.057004,34.1681991 C127.359759,33.2583041 128.839237,32.6331378 130.399216,32.3333599 C132.691346,31.845403 135.065046,31.8937039 137.335478,32.4745014 Z M131.075925,35.4384723 C128.590901,35.9315266 126.993117,37.0042017 126.282573,38.6564979 C125.987898,39.3105873 125.880519,40.0337736 125.972415,40.7453917 C126.046679,41.3953038 126.382772,41.9866852 126.902889,42.3826328 C127.168695,42.6501464 127.498864,42.8445847 127.861559,42.9471987 C129.624761,38.9575997 131.842861,37.1886266 134.515859,37.6402793 C135.53255,37.757765 136.342826,38.5457866 136.489592,39.5598034 C136.642399,40.5542627 136.421374,41.5701203 135.869276,42.4108611 C135.450105,43.2694814 134.831263,44.0148735 134.06472,44.5844398 C132.859342,45.3541085 131.520317,45.8903283 130.117254,46.1652243 C129.562314,47.8601345 129.117734,49.5890062 128.786206,51.3409515 L128.651053,52.0931662 L128.538268,52.4319057 C128.459319,52.940015 128.329616,53.6570137 128.143521,54.6337127 C128.075124,54.8563633 128.018651,55.0825116 127.974344,55.3111918 C128.309881,55.5379047 128.669166,55.7272177 129.045799,55.8757577 C130.613982,56.5261949 132.328471,56.74075 134.008328,56.4967801 C135.79535,56.2785428 137.510562,55.661135 139.027249,54.6901693 C140.388709,53.7781282 141.518406,52.5601464 142.326203,51.1334042 C143.177735,49.6459189 143.688189,47.9874644 143.8206,46.2781375 C143.97091,44.6844777 143.778625,43.0770704 143.256677,41.5640123 C142.803155,40.15899 142.008762,38.8884536 140.944589,37.8661057 C139.673953,36.7213003 138.129797,35.9240363 136.461396,35.5513855 C134.698355,35.1028909 132.856176,35.0642673 131.075925,35.4384723 Z M132.993265,41.0333203 C132.671518,41.2979773 132.376851,41.5936242 132.113441,41.9158593 L131.92181,42.1624521 L132.372949,41.9366258 C132.611654,41.6588001 132.819636,41.3559362 132.993265,41.0333203 Z M191.974046,51.8391115 C191.935572,51.6424387 191.869103,51.4523119 191.776672,51.2745456 C191.687561,51.0917855 191.562949,50.9286455 191.410122,50.7946646 C191.243726,50.6559889 191.052288,50.5505781 190.846198,50.4841534 C190.439049,50.3721875 190.004386,50.4227873 189.633762,50.6252949 C189.257726,50.8114137 188.980229,51.1509636 188.872465,51.5568286 C188.799155,51.7826549 188.697649,52.0931662 188.562307,52.4883623 C188.302813,53.1834579 188.001502,53.8621798 187.660029,54.5207995 C187.211976,55.447255 186.70334,56.3430977 186.137435,57.2024875 C185.523889,58.1124574 184.793984,58.9380939 183.966329,59.6583491 C183.163394,60.4250679 182.200309,61.0035771 181.146711,61.3520468 L183.131722,52.3246382 C183.171377,52.0508581 183.15215,51.7717557 183.07533,51.5060176 C183.003199,51.2289727 182.845267,50.9819214 182.624191,50.8003103 C182.415979,50.6214435 182.162132,50.5041502 181.89109,50.4615707 C181.477716,50.3434261 181.033254,50.4158627 180.678654,50.6591688 C180.332383,50.8926386 180.082044,51.243513 179.973749,51.6471591 L176.139068,69.7132677 C176.021058,70.1271125 176.093412,70.5720804 176.336441,70.9270844 C176.566979,71.2763348 176.918543,71.5277376 177.323308,71.6327917 C177.432077,71.6706909 177.546495,71.6897823 177.661662,71.6893516 C178.033161,71.6935528 178.393684,71.5632159 178.676725,71.3222805 C178.972883,71.0919002 179.173689,70.7601934 179.240648,70.3907468 L180.424888,64.7450878 C181.746959,64.5965931 183.018866,64.1528483 184.146785,63.4465863 C185.466366,64.6171196 185.80472,66.7060134 185.161847,69.7132677 C185.043837,70.1271125 185.116191,70.5720804 185.359221,70.9270844 C185.589758,71.2763348 185.941322,71.5277376 186.346087,71.6327917 C186.454856,71.6706909 186.569274,71.6897823 186.684441,71.6893516 C187.05594,71.6935528 187.416463,71.5632159 187.699504,71.3222805 C187.995662,71.0919002 188.196468,70.7601934 188.263428,70.3907468 C189.094275,66.4387855 188.567947,63.4654051 186.684441,61.4706057 C187.823378,60.3090127 188.800287,58.998653 189.588648,57.575101 C190.24193,56.4982535 190.816745,55.375616 191.308616,54.2159339 C191.57366,53.5215179 191.782312,52.9287237 191.928932,52.4375514 C192.004504,52.2473283 192.020245,52.0385353 191.974046,51.8391115 Z"
                id="logo"></path>
        </g>
    </g>
</svg>