<?xml version="1.0" encoding="UTF-8"?>
<svg width="1204px" height="304px" viewBox="0 0 1204 304" version="1.1" xmlns="http://www.w3.org/2000/svg" xmlns:xlink="http://www.w3.org/1999/xlink">
    <title>形状结合</title>
    <defs>
        <linearGradient x1="50%" y1="0%" x2="50%" y2="100%" id="linearGradient-1">
            <stop stop-color="#4D77FF" offset="0%"></stop>
            <stop stop-color="#B4FF7B" offset="100%"></stop>
        </linearGradient>
    </defs>
    <g id="页面-1" stroke="none" stroke-width="1" fill="none" fill-rule="evenodd">
        <g id="hashkey" transform="translate(-360.000000, -2054.000000)" fill-rule="nonzero" stroke="url(#linearGradient-1)" stroke-width="4">
            <path d="M529.486605,2058.92179 C532.640285,2058.90144 535.677047,2060.11752 537.945461,2062.31102 C540.256118,2064.43052 541.562283,2067.43043 541.540474,2070.5678 C541.596381,2073.66907 540.372303,2076.65616 538.156932,2078.82457 C522.620834,2095.50749 510.778436,2127.26433 502.629739,2174.09507 L502.629739,2174.09507 L523.776878,2177.05904 C550.563254,2181.60379 571.146469,2183.29749 585.526524,2182.14013 C588.644589,2161.5307 593.166523,2141.15883 599.060693,2121.16701 C599.812181,2119.3953 600.379106,2117.55069 600.752464,2115.6625 C602.698,2108.63365 604.432066,2103.08679 605.827777,2099.14894 C607.223488,2095.2111 609.422791,2090.13 612.38339,2083.90566 C614.876353,2078.35762 618.391783,2073.32985 622.745488,2069.08581 C626.584916,2065.50067 631.225517,2062.88736 636.279657,2061.46417 C646.308229,2058.21866 657.305722,2060.64734 665.039766,2067.81554 C671.151088,2073.38512 675.552089,2080.5816 677.72805,2088.56333 C680.321301,2096.61969 681.115405,2105.14796 680.054235,2113.54537 C675.542845,2147.13704 662.713581,2171.8368 641.566442,2187.64465 C630.910851,2195.23022 618.822234,2200.56104 606.039248,2203.31135 C605.193363,2207.5456 604.051417,2214.06633 602.655706,2222.78887 C598.398082,2247.09344 595.719445,2265.30069 594.619793,2277.41062 C593.707851,2289.05759 594.048157,2300.76894 595.634856,2312.34314 C597.185646,2322.64647 599.878382,2329.84468 603.713063,2333.93778 C605.938009,2336.17236 607.093827,2339.25805 606.885134,2342.40627 C606.737039,2345.70141 605.199961,2348.77907 602.655706,2350.87476 C600.442326,2352.83535 597.574664,2353.89306 594.619793,2353.83873 C591.238427,2353.9648 587.978785,2352.56622 585.737995,2350.02791 C573.331673,2336.47833 568.397341,2311.77857 570.934998,2275.92864 C572.621792,2256.74793 575.304054,2237.66806 578.970911,2218.76634 C580.070562,2213.43119 580.789564,2209.32398 581.085624,2206.48703 C560.516398,2206.57696 539.984134,2204.73404 519.758921,2200.98252 C513.054798,2199.69095 506.273073,2198.84227 499.457668,2198.44197 C498.958508,2198.11174 498.361557,2197.96233 497.765897,2198.01855 C497.667729,2199.44466 497.455579,2200.8606 497.131483,2202.25279 C496.70854,2204.36991 496.327891,2206.02127 496.074126,2207.12217 C494.086295,2217.87715 492.563701,2225.96456 491.421755,2231.46907 C490.27981,2236.97359 488.630333,2244.63757 486.346442,2254.54571 C484.062551,2264.45384 482.117014,2272.11782 480.425243,2277.62234 C478.733472,2283.12685 476.449581,2289.90164 473.658158,2297.94671 C471.502041,2304.50542 468.667017,2310.82053 465.199303,2316.7891 C462.365586,2321.31974 458.982044,2326.31614 455.048676,2331.82066 C451.657293,2336.65461 447.34529,2340.77007 442.360393,2343.9306 C437.749666,2346.83996 432.844426,2349.25279 427.726572,2351.12882 C421.952825,2353.1565 415.869827,2354.15955 409.751504,2354.09279 C388.878975,2354.36935 370.377572,2340.69388 364.496627,2320.64226 C361.096876,2310.31824 361.171159,2299.16314 364.708098,2288.88543 C368.289935,2278.34388 375.209894,2269.26038 384.417232,2263.01419 C387.035059,2261.10081 390.317984,2260.33647 393.510501,2260.89707 C396.607026,2261.40831 399.358718,2263.16833 401.123472,2265.76645 C402.917618,2268.35743 403.602863,2271.55889 403.026714,2274.65837 L402.965472,2275.01621 C402.411777,2277.9863 400.778554,2280.65131 398.374343,2282.49172 C392.87978,2286.14801 388.83907,2291.61668 386.954888,2297.94671 C385.250161,2302.95702 385.250161,2308.39138 386.954888,2313.4017 C388.685119,2317.97422 391.518416,2322.04718 395.202273,2325.25758 C399.251981,2328.73298 404.463941,2330.5479 409.793799,2330.33868 C414.380864,2330.39257 418.92542,2329.45374 423.116496,2327.58642 C427.490314,2325.53207 431.327276,2322.48799 434.32448,2318.69451 C437.708022,2314.62963 440.710916,2310.6071 443.41775,2306.62691 C446.731191,2301.33542 449.360349,2295.64429 451.242191,2289.68993 C453.779848,2282.36469 455.894562,2276.09801 457.586333,2270.84755 C459.278104,2265.62531 461.181346,2258.21538 463.29606,2248.61776 C465.43897,2239.02014 467.060251,2231.53965 468.159902,2226.17627 C469.259553,2220.81289 470.810344,2212.90897 472.812273,2202.4645 C472.759469,2201.97192 472.759469,2201.4751 472.812273,2200.98252 C472.919677,2200.49451 472.990366,2199.99913 473.023744,2199.50053 C448.211101,2203.17021 431.29339,2210.08614 422.270611,2220.24833 C417.547118,2225.37501 415.648789,2232.50184 417.195297,2239.30243 C417.785939,2242.49935 417.01966,2245.7981 415.080583,2248.40605 C413.23249,2251.01639 410.412167,2252.77156 407.256142,2253.27543 C404.128979,2253.89166 400.88859,2253.11926 398.374343,2251.15831 C395.786394,2249.38454 394.030538,2246.63311 393.510501,2243.53667 C390.728783,2229.40732 394.809376,2214.79473 404.507014,2204.1582 C418.858872,2188.06807 443.248572,2178.32931 477.676115,2174.94191 C481.440745,2149.14838 488.109289,2123.86428 497.554425,2099.57237 C490.466435,2101.27709 483.253275,2102.40985 475.984344,2102.95976 C461.012169,2103.80661 451.03072,2107.7868 445.955406,2114.81565 C443.884474,2117.58884 442.638275,2120.89136 442.360393,2124.3427 C442.067489,2127.16291 442.138564,2130.00915 442.571864,2132.81119 C442.740786,2134.10399 443.023856,2135.37925 443.41775,2136.622 C443.967337,2138.10987 444.113271,2139.71698 443.840692,2141.27967 C443.58592,2142.83088 443.08624,2144.33163 442.360393,2145.72563 C441.637302,2146.9991 440.708332,2148.14375 439.611265,2149.11303 C438.378918,2150.17583 436.938314,2150.96906 435.381837,2151.44186 C432.330009,2152.30455 429.061244,2151.92403 426.288567,2150.3833 C423.450312,2149.01014 421.361248,2146.45393 420.578839,2143.3968 C419.883724,2140.95869 419.318998,2138.4852 418.887068,2135.98687 C418.350507,2130.83161 418.564206,2125.62568 419.521482,2120.53188 C420.313995,2113.64974 422.862969,2107.08777 426.922981,2101.47778 C436.227722,2087.9282 452.299548,2080.58884 475.138458,2079.45971 C483.694075,2078.95261 492.115861,2077.09485 500.092082,2073.95519 C505.557566,2072.05139 510.803755,2069.56726 515.740965,2066.54526 L515.740965,2066.54526 L521.239221,2062.31102 C523.405166,2060.09313 526.388855,2058.86765 529.486605,2058.92179 Z M695.237881,2200.34738 C697.431483,2195.28613 703.106,2192.72053 708.349107,2194.41944 C710.963992,2194.9047 713.344083,2196.24502 715.116191,2198.23026 C716.877668,2200.28678 717.799038,2202.93306 717.696142,2205.64019 L717.696142,2205.64019 L725.732055,2341.136 C725.996514,2344.25233 724.919352,2347.33344 722.771456,2349.60449 C720.659315,2352.09877 717.578253,2353.56395 714.3126,2353.62702 C711.21856,2353.75542 708.192493,2352.69509 705.853745,2350.66305 C703.306742,2348.61087 701.892267,2345.46402 702.04726,2342.19456 L702.04726,2342.19456 L700.355488,2315.94225 L660.768044,2315.94225 L643.850333,2347.27565 C642.853172,2349.15886 641.398708,2350.7606 639.620905,2351.93332 C637.777271,2353.06592 635.651141,2353.6531 633.488235,2353.62702 C631.525645,2353.63746 629.606732,2353.04724 627.989979,2351.93332 C625.162601,2350.54639 623.078299,2347.99601 622.280251,2344.94682 C621.250619,2341.95161 621.479569,2338.66625 622.914665,2335.84319 L622.914665,2335.84319 Z M696.506709,2249.04119 L673.667799,2291.80705 L699.044366,2291.80705 L696.506709,2249.04119 Z M644.90769,2083.94801 C644.186502,2083.98966 643.474689,2084.13218 642.792976,2084.37143 C636.871777,2086.09336 630.527635,2098.65495 623.760551,2122.0562 C623.206426,2124.08289 622.499492,2126.06456 621.645837,2127.98415 C616.881099,2144.11835 613.068034,2160.51906 610.226382,2177.10138 C616.304035,2175.06159 622.015747,2172.05952 627.144093,2168.20947 C642.905761,2156.63587 652.633445,2137.29948 656.327145,2110.20032 C657.133119,2105.59704 656.76951,2100.86474 655.269788,2096.43903 C654.203315,2092.36517 652.088822,2088.64235 649.137118,2085.6417 C647.954517,2084.62223 646.466342,2084.02628 644.90769,2083.94801 Z M811.124202,2198.65368 C793.670764,2193.31853 779.43169,2196.5789 768.406982,2208.43479 C763.038893,2213.79431 759.425091,2220.66097 758.044884,2228.12402 C756.435929,2235.41656 757.100225,2243.02772 759.948126,2249.93038 C761.634955,2254.09723 763.99237,2257.95921 766.926682,2261.36284 C769.528826,2264.65912 772.355163,2267.77164 775.385538,2270.67818 C777.754017,2272.96467 781.349031,2276.05567 786.170578,2279.99351 C792.937663,2285.92146 798.055271,2290.79084 801.60799,2294.60166 C804.784237,2297.71592 806.799287,2301.82533 807.317717,2306.24583 C808.047619,2314.95096 803.786816,2323.3182 796.321205,2327.84047 C788.373491,2333.21289 778.097483,2333.70278 769.67581,2329.11075 C765.829362,2326.93926 762.955306,2323.38046 761.639897,2319.16027 C759.937997,2314.55606 760.089648,2309.46994 762.06284,2304.97555 C763.391623,2302.08681 763.391623,2298.76068 762.06284,2295.87193 C760.83276,2292.94939 758.465195,2290.65559 755.507227,2289.52056 C752.591501,2288.33655 749.329684,2288.33655 746.413957,2289.52056 C743.455989,2290.65559 741.088424,2292.94939 739.858344,2295.87193 C735.624506,2305.90644 735.322483,2317.16957 739.012458,2327.41705 C742.045434,2337.59682 749.278796,2345.994 758.890769,2350.49368 C766.123292,2354.08234 774.080602,2355.9653 782.152622,2355.9982 C791.714808,2356.07911 801.10278,2353.43573 809.22096,2348.37656 C816.13247,2343.73169 821.738786,2337.39006 825.504257,2329.95759 C829.313077,2322.42665 831.133095,2314.04503 830.791042,2305.61069 C830.394666,2299.32979 828.509923,2293.23368 825.292786,2287.82687 C822.61279,2282.87747 819.2687,2278.31863 815.35363,2274.27728 C812.111069,2271.17217 807.388208,2267.07907 801.185047,2261.99798 C789.906573,2252.68264 783.42145,2245.76671 781.729679,2241.25018 C780.824487,2238.66389 780.677725,2235.87224 781.306737,2233.20511 C781.765613,2229.99895 783.249477,2227.02784 785.536164,2224.73663 C789.765592,2220.50238 795.827772,2219.51439 803.722704,2221.77266 C808.939913,2223.37757 813.143077,2227.27382 815.142159,2232.35827 C817.366071,2236.56694 817.522188,2241.56837 815.565102,2245.90785 C813.888608,2248.63104 813.428413,2251.93285 814.296273,2255.01147 C814.996521,2258.09705 817.003602,2260.72468 819.794529,2262.20969 C822.48819,2263.75695 825.695118,2264.13916 828.676328,2263.26825 C831.712803,2262.47182 834.303036,2260.48879 835.866355,2257.76373 C841.82124,2247.39666 842.450365,2234.79982 837.558126,2223.88978 C833.213905,2211.77583 823.41697,2202.42283 811.124202,2198.65368 Z M1242.94878,2196.53656 C1244.91446,2197.10631 1246.7232,2198.12036 1248.23557,2199.50053 C1249.77004,2200.88435 1250.93337,2202.63134 1251.61911,2204.58162 C1252.24071,2206.52562 1252.27727,2208.60681 1251.7288,2210.56695 L1251.61911,2210.93299 L1231.31785,2306.20348 C1229.34412,2315.51882 1230.33099,2322.5759 1234.27845,2327.37471 C1237.56834,2330.79663 1242.24713,2332.51414 1246.96674,2332.03237 C1249.80021,2332.09398 1252.633,2331.88128 1255.42559,2331.39724 C1257.95538,2330.78419 1260.32201,2329.62843 1262.36185,2328.00984 C1265.16342,2325.91449 1267.4851,2323.24368 1269.17123,2320.17649 C1271.61358,2315.70432 1273.66543,2311.02927 1275.3039,2306.20348 C1277.58327,2299.4641 1279.3907,2292.57447 1280.71329,2285.58469 L1280.97134,2284.18542 L1297.88905,2205.8519 C1298.71845,2202.83272 1300.5921,2200.20663 1303.17583,2198.44197 C1305.76547,2196.64893 1308.99093,2196.03386 1312.05763,2196.74827 C1315.1739,2197.37701 1317.92118,2199.20049 1319.7129,2201.82937 C1321.48703,2204.39015 1322.05619,2207.59219 1321.28447,2210.59967 L1321.1932,2210.93299 L1304.69843,2289.26651 L1303.04895,2297.31157 C1302.58371,2297.31157 1302.58371,2297.60797 1302.58371,2298.15842 C1301.15252,2304.18 1299.38752,2310.11714 1297.29693,2315.94225 C1295.3474,2321.28378 1292.95655,2326.45334 1290.1492,2331.39724 C1287.50084,2336.12452 1284.13335,2340.4101 1280.16775,2344.09997 C1276.1206,2347.81914 1271.37665,2350.69753 1266.21063,2352.56846 C1260.10949,2354.76665 1253.66167,2355.84251 1247.17821,2355.74414 C1235.28028,2356.44459 1223.72713,2351.59925 1215.88044,2342.61798 C1212.07173,2337.42232 1209.53636,2331.40304 1208.47894,2325.04587 C1207.38076,2319.97032 1206.8839,2314.78288 1206.99864,2309.59088 C1207.19059,2307.05751 1207.54699,2304.53966 1208.06546,2302.05328 L1208.26747,2301.12239 L1228.56873,2205.8519 C1229.38094,2202.82455 1231.25848,2200.19299 1233.85551,2198.44197 C1236.51797,2196.63342 1239.78533,2195.94877 1242.94878,2196.53656 Z M1368.50865,2202.17578 L1368.60508,2202.4645 L1394.74294,2292.6539 L1413.77537,2203.31135 C1414.58758,2200.28401 1416.46513,2197.65245 1419.06215,2195.90142 C1421.72166,2194.07663 1425.05512,2193.53335 1428.15542,2194.41944 C1430.13437,2194.70956 1431.9783,2195.59565 1433.44221,2196.95998 C1435.04965,2198.38251 1436.24719,2200.2101 1436.91034,2202.25279 C1437.58928,2204.10866 1437.69484,2206.12309 1437.21804,2208.03519 L1437.12181,2208.39244 L1408.3617,2343.88826 C1408.35615,2344.17846 1408.2365,2344.45293 1408.03167,2344.65373 L1407.93876,2344.73511 L1407.93876,2345.58196 C1407.66932,2345.89657 1407.45484,2346.25445 1407.30435,2346.64052 C1407.19588,2347.04581 1406.97609,2347.41254 1406.66993,2347.69908 C1406.66438,2347.98928 1406.54473,2348.26375 1406.3399,2348.46455 L1406.24699,2348.54593 L1405.82405,2348.96935 L1405.82405,2349.39278 C1405.37264,2349.62978 1404.94736,2349.91362 1404.55522,2350.23962 C1404.55522,2350.66305 1404.42833,2350.66305 1404.13227,2350.66305 C1403.6637,2351.2007 1403.08726,2351.63352 1402.4405,2351.93332 C1402.11892,2351.97495 1401.82083,2352.12416 1401.59462,2352.35675 C1401.21012,2352.59432 1400.77577,2352.73927 1400.32579,2352.78017 C1399.97163,2352.83847 1399.62669,2352.94161 1399.29919,2353.08683 L1399.05696,2353.2036 L1398.63402,2353.2036 C1397.95796,2353.46294 1397.243,2353.6061 1396.5193,2353.62702 C1396.01405,2353.62271 1395.51587,2353.51548 1395.05482,2353.31283 L1394.82753,2353.2036 L1393.5587,2353.2036 C1393.16554,2352.98515 1392.73533,2352.84158 1392.28988,2352.78017 C1392.07295,2352.53517 1391.76992,2352.38348 1391.44399,2352.35675 C1391.1423,2352.0802 1390.80808,2351.84209 1390.44901,2351.64755 L1390.17516,2351.5099 L1389.75222,2351.08647 C1389.20914,2350.81097 1388.7109,2350.45577 1388.27382,2350.0331 L1388.06045,2349.8162 L1387.63751,2349.39278 C1387.36127,2349.09074 1387.12344,2348.75614 1386.92912,2348.39666 L1386.79162,2348.1225 L1386.36868,2347.69908 C1386.19971,2347.30638 1385.97251,2346.94203 1385.69516,2346.61817 L1385.52279,2346.4288 L1385.52279,2345.58196 C1385.31303,2345.39581 1385.17175,2345.14633 1385.11884,2344.87336 L1385.09985,2344.73511 L1358.8774,2254.54571 L1339.84497,2343.88826 C1339.18112,2347.03846 1337.27473,2349.7868 1334.55819,2351.5099 C1331.92713,2353.20568 1328.71458,2353.74171 1325.67639,2352.99188 C1322.5631,2352.38319 1319.82207,2350.55375 1318.06342,2347.91079 C1316.3058,2345.34335 1315.73844,2342.14852 1316.49375,2339.14057 L1316.58312,2338.80717 L1345.34323,2203.31135 C1345.9124,2201.66387 1346.69444,2200.09803 1347.66941,2198.65368 C1348.71324,2197.21385 1350.09252,2196.05103 1351.68737,2195.26629 C1353.25593,2194.44948 1354.99471,2194.01429 1356.76268,2193.99601 C1362.04425,2193.89033 1366.77907,2197.20294 1368.50865,2202.17578 Z M891.483331,2194.41944 C893.51357,2194.74728 895.415215,2195.62596 896.981587,2196.95998 C898.62679,2198.33347 899.808424,2200.18187 900.365129,2202.25279 C900.858285,2204.09917 901.018583,2206.01749 900.839828,2207.9178 L900.788072,2208.39244 L885.562132,2278.25747 L933.354666,2278.25747 L949.426492,2203.31135 C949.97846,2200.22696 951.82682,2197.52837 954.501805,2195.90142 C957.093871,2194.10701 960.350339,2193.56365 963.383603,2194.41944 C965.501888,2194.66064 967.495032,2195.54749 969.093331,2196.95998 C970.622359,2198.39412 971.720974,2200.22723 972.265402,2202.25279 C972.686522,2204.05904 972.792256,2205.92344 972.579101,2207.76359 L972.519167,2208.22307 L943.336116,2343.71889 C942.178588,2349.35604 937.242047,2353.41567 931.493718,2353.45773 C930.629964,2353.46166 929.771828,2353.31847 928.956061,2353.03423 C925.920322,2352.24632 923.283595,2350.3608 921.554562,2347.74142 C919.774823,2345.1829 919.205049,2341.9784 919.982346,2338.97109 L920.074263,2338.6378 L927.687233,2302.2233 L880.317641,2302.2233 L871.435843,2343.71889 C870.278315,2349.35604 865.341775,2353.41567 859.593445,2353.45773 C858.729691,2353.46166 857.871555,2353.31847 857.055788,2353.03423 C854.020049,2352.24632 851.383323,2350.3608 849.65429,2347.74142 C847.874551,2345.1829 847.304777,2341.9784 848.082073,2338.97109 L848.17399,2338.6378 L876.934099,2203.14198 C877.721109,2200.10278 879.604485,2197.46306 882.220884,2195.73205 C884.950528,2193.91289 888.356603,2193.4302 891.483331,2194.41944 Z M1152.01608,2059.55876 C1168.25182,2063.44151 1183.23957,2071.38096 1195.57919,2082.63539 C1206.24664,2092.64024 1214.24352,2105.15869 1218.84104,2119.04989 C1223.92495,2133.86927 1225.79925,2149.60242 1224.3393,2165.20315 C1223.15381,2181.58815 1218.32754,2197.50115 1210.21301,2211.77984 C1202.33619,2225.57986 1191.32454,2237.32932 1178.06936,2246.07722 C1163.41457,2255.77856 1146.67567,2261.87236 1129.21947,2263.86104 C1113.04617,2265.94756 1096.61446,2263.7238 1081.58238,2257.42171 L1080.79252,2257.08625 L1077.40898,2255.39255 C1074.87132,2266.99438 1072.37596,2276.9872 1070.00748,2285.45569 C1067.46888,2294.28615 1064.28832,2302.91883 1060.49127,2311.28458 C1057.18711,2318.9233 1052.92328,2326.10892 1047.80298,2332.66751 C1043.1449,2338.29096 1037.38783,2342.90186 1030.88527,2346.21709 C1023.96017,2349.79575 1016.26187,2351.61345 1008.4693,2351.5099 C999.497355,2351.62637 990.733705,2348.80096 983.51568,2343.46483 C976.181414,2338.16349 970.82327,2330.56414 968.28974,2321.87019 C965.165175,2312.80487 965.239816,2302.94106 968.501211,2293.92418 C971.732907,2284.60538 977.890456,2276.58403 986.053336,2271.05926 C988.444877,2269.18332 991.520218,2268.41361 994.512192,2268.94214 C997.654903,2269.48142 1000.46272,2271.2288 1002.33663,2273.81152 C1004.25065,2276.34991 1005.01739,2279.57387 1004.45135,2282.70343 C1003.90577,2285.90148 1002.07045,2288.73415 999.376034,2290.53678 C990.60702,2297.05752 987.787402,2305.10258 990.917178,2314.67197 C992.928352,2322.56325 1000.12579,2328.01141 1008.25783,2327.79813 C1014.68655,2327.82038 1020.8841,2325.39907 1025.59849,2321.02334 C1031.48917,2315.32085 1036.03984,2308.37859 1038.92118,2300.69897 C1042.62287,2291.95604 1045.7315,2282.97318 1048.22592,2273.81152 C1050.5944,2264.9196 1053.08977,2253.86823 1055.62742,2240.5727 C1044.76386,2229.60816 1037.52913,2215.56566 1034.90323,2200.34738 C1034.3125,2197.24772 1034.99895,2194.04063 1036.80647,2191.45547 C1038.49865,2188.74693 1041.27126,2186.89642 1044.41944,2186.37437 C1047.58259,2185.80947 1050.84136,2186.49231 1053.51271,2188.27978 C1056.24881,2190.04088 1058.09732,2192.89391 1058.58802,2196.11314 C1059.36139,2200.15798 1060.49373,2204.12568 1061.97157,2207.96902 C1062.31665,2207.03005 1062.5743,2206.06154 1062.74144,2205.07585 L1062.81745,2204.58162 L1063.24039,2202.04108 C1065.70716,2188.03836 1068.9548,2174.18483 1072.96808,2160.54548 C1067.43454,2158.93365 1062.3615,2156.03146 1058.16508,2152.077 C1050.42207,2145.59615 1045.1857,2136.60929 1043.36208,2126.67153 C1041.39232,2116.36161 1042.72447,2105.69225 1047.16857,2096.18497 C1051.66949,2086.54433 1058.66419,2078.2844 1067.42753,2072.26149 C1077.19819,2065.43728 1088.29428,2060.74853 1099.99412,2058.5002 C1117.18509,2054.84052 1134.98785,2055.20278 1152.01608,2059.55876 Z M1105.06943,2081.78854 C1086.43176,2085.48645 1074.44838,2093.53151 1069.1193,2105.92373 C1066.90923,2110.82941 1066.10389,2116.2533 1066.79311,2121.59044 C1067.35009,2126.46478 1069.87079,2130.90014 1073.77167,2133.86975 C1075.76521,2135.8761 1078.24148,2137.33439 1080.9617,2138.10399 C1094.18571,2108.182 1110.82146,2094.9147 1130.86894,2098.30209 C1138.49413,2099.18324 1144.5712,2105.0934 1145.67194,2112.69853 C1146.81799,2120.15697 1145.16031,2127.7759 1141.01957,2134.08146 C1137.87579,2140.52111 1133.23448,2146.11155 1127.4854,2150.3833 C1118.44506,2156.15581 1108.40238,2160.17746 1097.87941,2162.23918 C1093.31304,2176.18587 1089.743,2190.43916 1087.19595,2204.89121 L1086.8829,2206.69875 L1086.03701,2209.23929 C1085.44489,2213.05011 1084.47212,2218.4276 1083.07641,2225.75285 C1082.56343,2227.42272 1082.13988,2229.11884 1081.80758,2230.83394 C1084.3241,2232.53429 1087.01875,2233.95413 1089.84349,2235.06818 C1101.60487,2239.94646 1114.46353,2241.55563 1127.06246,2239.72585 C1140.46513,2238.08907 1153.32922,2233.45851 1164.70437,2226.17627 C1174.91532,2219.33596 1183.38804,2210.2011 1189.44652,2199.50053 C1195.83301,2188.34439 1199.66141,2175.90598 1200.6545,2163.08603 C1201.78183,2151.13358 1200.33969,2139.07803 1196.42508,2127.73009 C1193.02366,2117.19242 1187.06571,2107.6634 1179.08442,2099.99579 C1169.55465,2091.40975 1157.97348,2085.43027 1145.46047,2082.63539 C1132.23766,2079.27168 1118.42132,2078.982 1105.06943,2081.78854 Z M1119.44949,2123.7499 C1116.6342,2126.06565 1114.09535,2128.69776 1111.8827,2131.59379 L1111.41358,2132.21839 L1114.79712,2130.52469 C1116.5874,2128.441 1118.14727,2126.16952 1119.44949,2123.7499 Z M1561.80534,2204.79334 C1561.51679,2203.31829 1561.01827,2201.89234 1560.32504,2200.55909 C1559.65671,2199.18839 1558.72212,2197.96484 1557.57592,2196.95998 C1556.32794,2195.91992 1554.89216,2195.12934 1553.34649,2194.63115 C1550.29287,2193.79141 1547.0329,2194.1709 1544.25322,2195.68971 C1541.43295,2197.0856 1539.35171,2199.63223 1538.54349,2202.67621 C1537.99366,2204.36991 1537.23237,2206.69875 1536.2173,2209.66272 C1534.27109,2214.87593 1532.01126,2219.96635 1529.45022,2224.906 C1526.08982,2231.85441 1522.27505,2238.57323 1518.03077,2245.01866 C1513.42917,2251.84343 1507.95488,2258.0357 1501.74747,2263.43762 C1495.72546,2269.18801 1488.50232,2273.52683 1480.60033,2276.14035 L1495.48791,2208.43479 C1495.78533,2206.38144 1495.64113,2204.28817 1495.06497,2202.29513 C1494.524,2200.2173 1493.3395,2198.36441 1491.68143,2197.00233 C1490.11984,2195.66083 1488.21599,2194.78113 1486.18317,2194.46178 C1483.08287,2193.5757 1479.74941,2194.11897 1477.0899,2195.94377 C1474.49288,2197.69479 1472.61533,2200.32635 1471.80312,2203.35369 L1443.04301,2338.84951 C1442.15793,2341.95334 1442.70059,2345.2906 1444.52331,2347.95313 C1446.25234,2350.57251 1448.88907,2352.45803 1451.92481,2353.24594 C1452.74058,2353.53018 1453.59871,2353.67337 1454.46247,2353.67014 C1457.24871,2353.70165 1459.95263,2352.72412 1462.07544,2350.9171 C1464.29662,2349.18925 1465.80267,2346.70145 1466.30486,2343.9306 L1475.18666,2301.58816 C1485.1022,2300.47445 1494.64149,2297.14636 1503.10088,2291.8494 C1512.99775,2300.6284 1515.5354,2316.2951 1510.71385,2338.84951 C1509.82878,2341.95334 1510.37143,2345.2906 1512.19415,2347.95313 C1513.92319,2350.57251 1516.55991,2352.45803 1519.59565,2353.24594 C1520.41142,2353.53018 1521.26956,2353.67337 1522.13331,2353.67014 C1524.91955,2353.70165 1527.62347,2352.72412 1529.74628,2350.9171 C1531.96747,2349.18925 1533.47351,2346.70145 1533.97571,2343.9306 C1540.20706,2314.29089 1536.2596,2291.99054 1522.13331,2277.02954 C1530.67533,2268.3176 1538.00215,2258.4899 1543.91486,2247.81326 C1548.81448,2239.7369 1553.12559,2231.31712 1556.81462,2222.6195 C1558.80245,2217.41138 1560.36734,2212.96543 1561.46699,2209.28164 C1562.03378,2207.85496 1562.15183,2206.28902 1561.80534,2204.79334 Z" id="形状结合"></path>
        </g>
    </g>
</svg>