<?xml version="1.0" encoding="UTF-8"?>
<svg width="201px" height="218px" viewBox="0 0 201 218" version="1.1" xmlns="http://www.w3.org/2000/svg" xmlns:xlink="http://www.w3.org/1999/xlink">
    <title>编组</title>
    <defs>
        <linearGradient x1="66.9330091%" y1="87.1119605%" x2="33.0669909%" y2="8.79294787%" id="linearGradient-1">
            <stop stop-color="#AAF4FF" offset="0%"></stop>
            <stop stop-color="#FCC9FF" offset="46.9595102%"></stop>
            <stop stop-color="#D4FEFF" offset="82.1047973%"></stop>
            <stop stop-color="#98C7FF" offset="100%"></stop>
        </linearGradient>
        <linearGradient x1="66.9310453%" y1="87.1119605%" x2="33.0689547%" y2="8.79294787%" id="linearGradient-2">
            <stop stop-color="#AAF4FF" offset="0%"></stop>
            <stop stop-color="#FCC9FF" offset="46.9595102%"></stop>
            <stop stop-color="#D4FEFF" offset="82.1047973%"></stop>
            <stop stop-color="#98C7FF" offset="100%"></stop>
        </linearGradient>
        <linearGradient x1="100%" y1="62.4171559%" x2="0%" y2="36.2126822%" id="linearGradient-3">
            <stop stop-color="#AAF4FF" offset="0%"></stop>
            <stop stop-color="#FCC9FF" offset="46.9595102%"></stop>
            <stop stop-color="#D4FEFF" offset="82.1047973%"></stop>
            <stop stop-color="#98C7FF" offset="100%"></stop>
        </linearGradient>
    </defs>
    <g id="页面-2" stroke="none" stroke-width="1" fill="none" fill-rule="evenodd">
        <g id="mint1440" transform="translate(-1032.000000, -375.000000)" fill-rule="nonzero">
            <g id="编组-5" transform="translate(960.000000, 169.000000)">
                <g id="编组-4" transform="translate(0.000000, 136.000000)">
                    <g id="编组" transform="translate(172.800000, 179.104559) rotate(15.000000) translate(-172.800000, -179.104559) translate(93.600000, 88.204559)">
                        <path d="M42.4097975,147.252348 C43.5312599,146.614365 44.0935952,145.653729 44.0995872,143.730169 C44.1045945,141.806151 43.549592,140.201125 42.4354623,138.273903 C41.3213326,136.34714 40.2053698,135.061105 38.5284465,134.094519 C36.8519815,133.127934 35.7323522,133.12473 34.6108897,133.762713 C33.4894273,134.401154 32.927092,135.36179 32.9215519,137.28535 C32.9160927,139.209368 33.4715535,140.814394 34.5852249,142.741158 C35.6993546,144.668379 36.8153174,145.953956 38.4922407,146.920542 C40.1687057,147.887585 41.288335,147.890789 42.4097975,147.252348 L42.4097975,147.252348 Z M54.2417538,119.390246 C56.4846787,118.113822 57.0543469,114.591643 57.0672754,110.10242 C57.0818449,104.972012 55.4177541,99.5162038 52.632659,94.698379 C49.29027,88.9171725 45.381421,85.3826365 40.3547759,82.4842529 C34.7657955,79.2618435 30.2891115,78.6046386 26.9247241,80.5195031 C23.0048758,82.1130877 21.3132869,86.2769111 21.2954132,92.6901512 L29.6754465,97.5217058 C29.6864457,93.6741279 30.254739,90.7894742 31.9367035,89.8324997 C33.6205013,88.2338807 35.8597599,88.2398303 39.771817,90.4956542 C42.5660781,92.1066301 44.7970872,94.0352245 46.4680526,96.9258278 C48.1394763,99.8164311 48.6912706,102.703831 48.6839378,105.269035 C48.676605,107.83424 48.1119782,109.436062 46.4300136,110.389833 L44.748049,111.347265 C40.2654072,113.901486 36.9010197,115.815893 35.7758908,117.736707 C34.6525951,119.016334 34.6438874,122.222726 34.6347214,125.429117 L34.631055,126.708744 L43.0142964,131.542129 L43.0179629,130.262502 C43.0234625,128.338484 43.587631,126.737119 44.1522578,125.135297 C44.7132182,123.531643 45.8346807,122.89366 47.5152703,122.577873 C51.4383267,120.985661 53.6794185,120.350424 54.2417538,119.390246 L54.2417538,119.390246 Z M0.254357042,47.2775652 L78.2846813,92.265897 L78.0303242,181.8 L-2.33752854e-14,136.812126 L0.254357042,47.2775652 Z" id="Fill-1" fill="url(#linearGradient-1)"></path>
                        <path d="M122.699729,142.928022 C123.813859,141.001258 124.369319,139.399435 124.36386,137.475418 C124.35832,135.551858 123.795985,134.591222 122.674522,133.953239 C121.55306,133.314798 120.433431,133.318002 118.756507,134.285045 C117.080042,135.25163 115.964079,136.537207 114.84995,138.464429 C113.73582,140.39165 113.180359,141.996219 113.18627,143.919779 C113.191358,145.844254 113.753694,146.801229 114.875615,147.439212 C115.997077,148.077195 117.116248,148.074449 118.793171,147.107406 C120.469636,146.141278 121.585599,144.855243 122.699729,142.928022 L122.699729,142.928022 Z M134.335074,101.539214 C136.563333,97.685229 137.111461,93.5149983 137.098847,89.025776 C137.083963,83.8990284 135.394666,80.3763917 132.591239,78.7809763 C129.226851,76.8665695 125.313878,77.8377317 120.284024,80.7374882 C114.695502,83.9598976 110.229818,88.4614768 106.890178,94.2413104 C102.98912,100.344712 101.326863,106.441707 101.345045,112.851285 L109.725228,108.019731 C109.714687,104.171695 110.26419,100.646312 111.935156,97.7557092 C113.604746,94.2239192 115.836672,91.6523074 119.748729,89.3969412 C122.543448,87.7859653 124.780874,87.1383713 126.462838,88.0953459 C128.142053,89.0546088 128.708055,91.2976181 128.715387,93.8591613 C128.72272,96.4243658 128.169093,98.6705787 126.500877,101.559351 L124.829453,104.449955 C120.373393,112.158383 117.031004,117.939589 115.920541,121.149184 C114.808244,123.714389 114.81741,126.92078 114.826118,130.127171 L114.830243,131.410002 L123.213484,126.576159 L123.20936,125.293786 C123.204318,123.370226 123.757487,121.124013 124.311115,118.8778 C124.864284,116.63479 125.978414,114.708027 127.651671,112.45861 C131.549979,106.356581 133.780072,103.143783 134.335074,101.539214 L134.335074,101.539214 Z M80.1185268,91.807913 L158.145643,46.8214119 L158.4,136.359634 L80.3724256,181.346135 L80.1185268,91.807913 Z" id="Fill-9" fill="url(#linearGradient-2)"></path>
                        <path d="M55.193874,62.3854983 C57.4221334,62.3854983 59.0885157,62.0646761 60.7544398,61.0980906 C62.4203638,60.131505 62.9716999,59.1649195 62.9644391,57.8756811 C62.9570343,56.5873581 62.394699,55.6203149 60.7209838,54.6555601 C59.0440605,53.6889745 57.371262,53.3663217 55.1430026,53.3663217 C52.9147433,53.3663217 51.2456111,53.6889745 49.5796871,54.6555601 C47.913763,55.6221456 47.3647185,56.5873581 47.372428,57.8761388 C47.3798424,59.1649195 47.9421777,60.131505 49.6186427,61.0980906 C51.2923578,62.0633031 52.9656147,62.3854983 55.193874,62.3854983 L55.193874,62.3854983 Z M96.9084289,51.7553458 C101.364948,51.7548882 105.255006,50.1439123 109.141857,47.8885461 C113.58096,45.3123577 115.790887,42.0899483 115.773121,38.8679965 C115.751015,35.0011968 112.949421,32.1009825 107.919568,29.201226 C102.333796,25.9806472 96.1966875,24.3696714 89.5119095,24.3696714 C82.2684625,24.0470185 76.1496862,25.658452 70.6001197,28.8790308 L78.9833611,33.7124161 C82.3147509,31.779245 85.6470573,30.4918373 88.9894463,30.4918373 C92.8872962,30.1691845 96.2328933,30.8140325 100.142201,33.0675681 C102.93692,34.6790016 104.617051,36.2899775 104.628051,38.2236062 C104.63905,40.1567772 102.976792,41.7677531 100.758615,43.0551608 C98.5376889,44.3439415 96.313096,44.9883318 92.9707069,44.9883318 L89.6283179,44.9883318 C80.7152805,44.9883318 74.032794,44.9901625 70.6945297,45.6345528 C67.9140176,45.955375 65.1376303,47.5663509 62.361243,49.1777844 L61.2507797,49.8221748 L69.6312714,54.6537294 L70.7417347,54.0093391 C72.4076587,53.0422959 74.6322517,52.3979055 76.8568446,51.7535152 C79.0782294,51.1109555 81.3064888,51.1109555 84.0938753,51.4331507 C91.3377806,51.7553458 95.2388385,52.077541 96.9084289,51.7553458 L96.9084289,51.7553458 Z M78.2363305,5.31061639e-14 L156.266196,44.9883318 L78.7432114,89.9771214 L0.71334547,44.9887895 L78.2363305,5.31061639e-14 Z" id="Fill-13" fill="url(#linearGradient-3)"></path>
                    </g>
                </g>
            </g>
        </g>
    </g>
</svg>