<svg xmlns="http://www.w3.org/2000/svg" xmlns:xlink="http://www.w3.org/1999/xlink" width="36" height="36"
  viewBox="0 0 36 36">
  <defs>
    <style>
      .cls-1,
      .cls-3 {
        fill: #fff;
      }

      .cls-1 {
        stroke: #707070;
      }

      .cls-2 {
        clip-path: url(#clip-path);
      }
    </style>
    <clipPath id="clip-path">
      <rect id="矩形_16" data-name="矩形 16" class="cls-1" width="36" height="36" transform="translate(1439 2875)" />
    </clipPath>
  </defs>
  <g id="蒙版组_3" data-name="蒙版组 3" class="cls-2" transform="translate(-1439 -2875)">
    <path id="联合_4" data-name="联合 4" class="cls-3"
      d="M6.8,22.483a6.8,6.8,0,0,1-6.8-6.8v-.121a.182.182,0,0,1,.182-.181H6.09a.2.2,0,0,1,.192.223,2,2,0,0,0,.211,1.13,2.079,2.079,0,0,0,1.864,1.153h2.925V15.614H8.391a.185.185,0,0,1-.15-.291c.031-.048.067-.1.1-.154.274-.387.664-.989,1.053-1.674a13.085,13.085,0,0,0,.729-1.451c.042-.09.075-.181.109-.271.056-.158.115-.306.157-.454.042-.125.075-.256.108-.379a5.831,5.831,0,0,0,.14-1.328c0-.181-.008-.371-.025-.552-.008-.2-.033-.4-.058-.593-.017-.175-.048-.348-.082-.529-.042-.264-.1-.527-.167-.791l-.023-.1c-.05-.181-.092-.354-.15-.535C9.971,5.944,9.78,5.39,9.58,4.871c-.073-.206-.157-.4-.24-.6-.123-.3-.249-.568-.363-.825-.059-.116-.109-.222-.159-.331s-.115-.246-.174-.362c-.042-.09-.09-.173-.123-.256l-.357-.658a.116.116,0,0,1,.132-.169l2.236.6h.007s.006,0,.008,0l.295.081.324.092.119.034V1.158A1.153,1.153,0,0,1,12.432,0a1.137,1.137,0,0,1,.813.339,1.163,1.163,0,0,1,.336.818V3.123l.238.066a.194.194,0,0,1,.054.027c.059.043.142.108.249.187.083.067.174.148.282.231.215.173.472.4.754.651.075.065.148.131.215.2.363.337.771.733,1.16,1.17.109.123.215.248.324.379s.223.264.324.4c.132.175.274.356.4.545.059.09.125.181.182.271.159.24.3.487.433.735.056.115.115.239.165.362a5.279,5.279,0,0,1,.34,1.006,1.254,1.254,0,0,1,.048.223v.017a1.922,1.922,0,0,1,.042.314,3.361,3.361,0,0,1-.059,1.039,3.821,3.821,0,0,1-.123.435c-.05.142-.1.289-.165.429a5.8,5.8,0,0,1-.449.849c-.056.1-.123.206-.19.306s-.149.206-.215.3c-.092.125-.19.256-.291.372a3.931,3.931,0,0,1-.282.354c-.14.164-.274.321-.414.47-.084.1-.174.2-.265.287s-.182.19-.265.273c-.14.139-.257.248-.355.337l-.23.21a.189.189,0,0,1-.123.046h-1.78v2.275h2.24a2.1,2.1,0,0,0,1.362-.5,16.322,16.322,0,0,0,1.385-1.358.174.174,0,0,1,.086-.052L24.841,14.2a.182.182,0,0,1,.232.175v1.305a.188.188,0,0,1-.113.171,6.513,6.513,0,0,0-2.395,1.624c-1.488,2.063-2.624,5.013-5.165,5.013ZM1.647,13.115a.18.18,0,0,1-.155-.277L1.58,12.7,6.87,4.455a.181.181,0,0,1,.318.023c.884,1.974,1.647,4.428,1.289,5.956A9.3,9.3,0,0,1,7.436,12.7c-.06.115-.127.227-.2.335a.18.18,0,0,1-.15.079Z"
      transform="translate(1444.464 2881.758)" />
  </g>
</svg>