<?xml version="1.0" encoding="UTF-8"?>
<svg width="16px" height="13px" viewBox="0 0 16 13" version="1.1" xmlns="http://www.w3.org/2000/svg" xmlns:xlink="http://www.w3.org/1999/xlink">
    <title>路径</title>
    <g id="页面-1" stroke="none" stroke-width="1" fill="none" fill-rule="evenodd">
        <g id="hashkey" transform="translate(-972.000000, -5351.000000)" fill="#FFFFFF" fill-rule="nonzero">
            <path d="M988,5352.54405 C987.4116,5352.79786 986.7713,5352.98053 986.1118,5353.05168 C986.7925,5352.64596 987.3097,5352.00565 987.5539,5351.2442 C986.9251,5351.61916 986.2137,5351.89412 985.4734,5352.03641 C984.8735,5351.39611 984.0216,5351 983.0775,5351 C981.2604,5351 979.7991,5352.4729 979.7991,5354.28038 C979.7991,5354.53419 979.8298,5354.78801 979.8798,5355.0322 C977.159,5354.88992 974.73236,5353.59007 973.1191,5351.59993 C972.83452,5352.08833 972.673,5352.64596 972.673,5353.2555 C972.673,5354.39382 973.25177,5355.3975 974.13436,5355.9879 C973.59596,5355.9667 973.08833,5355.8148 972.65184,5355.5706 L972.65184,5355.611 C972.65184,5357.205 973.77863,5358.526 975.28038,5358.8298 C975.00541,5358.901 974.71121,5358.9414 974.41702,5358.9414 C974.20358,5358.9414 974.00168,5358.9202 973.79786,5358.8914 C974.2132,5360.1912 975.42267,5361.1353 976.86288,5361.1661 C975.73609,5362.0487 974.32472,5362.5678 972.79221,5362.5678 C972.51725,5362.5678 972.26343,5362.5582 972,5362.5275 C973.45367,5363.46 975.17846,5363.9984 977.03593,5363.9984 C983.066,5363.9984 986.3656,5359.0029 986.3656,5354.66687 C986.3656,5354.52458 986.3656,5354.38229 986.356,5354.24 C986.9944,5353.77274 987.5539,5353.19397 988,5352.54405 Z" id="路径"></path>
        </g>
    </g>
</svg>