<svg xmlns="http://www.w3.org/2000/svg" xmlns:xlink="http://www.w3.org/1999/xlink" width="36" height="36"
  viewBox="0 0 36 36">
  <defs>
    <style>
      .cls-1 {
        fill: #fff;
      }

      .cls-2 {
        clip-path: url(#clip-path);
      }
    </style>
    <clipPath id="clip-path">
      <rect id="矩形_13" data-name="矩形 13" class="cls-1" width="36" height="36" transform="translate(1491 2901)" />
    </clipPath>
  </defs>
  <g id="蒙版组_1" data-name="蒙版组 1" class="cls-2" transform="translate(-1491 -2901)">
    <path id="Cosmos_The_Internet_of_Blockchains" data-name="Cosmos The Internet of Blockchains" class="cls-1"
      d="M27.994,5.7a11.482,11.482,0,0,1-3.3.9A5.759,5.759,0,0,0,27.22,3.432a11.5,11.5,0,0,1-3.647,1.393,5.748,5.748,0,0,0-9.787,5.237,16.306,16.306,0,0,1-11.838-6,5.747,5.747,0,0,0,1.777,7.666,5.72,5.72,0,0,1-2.6-.718c0,.024,0,.048,0,.072a5.746,5.746,0,0,0,4.607,5.63,5.758,5.758,0,0,1-2.594.1A5.749,5.749,0,0,0,8.5,20.8,11.525,11.525,0,0,1,1.37,23.257,11.688,11.688,0,0,1,0,23.177a16.258,16.258,0,0,0,8.8,2.58c10.564,0,16.341-8.749,16.341-16.337q0-.373-.017-.743A11.666,11.666,0,0,0,27.994,5.7Z"
      transform="translate(1495.003 2904.616)" />
  </g>
</svg>