<?xml version="1.0" encoding="UTF-8"?>
<svg width="384px" height="132px" viewBox="0 0 384 132" version="1.1" xmlns="http://www.w3.org/2000/svg" xmlns:xlink="http://www.w3.org/1999/xlink">
    <title>usd</title>
    <defs>
        <path d="M376,0 C380.418278,-8.11624501e-16 384,3.581722 384,8 L384,124 C384,128.418278 380.418278,132 376,132 L144,132 L144,132 C144,125.372583 138.627417,120 132,120 C125.372583,120 120,125.372583 120,132 L8,132 C3.581722,132 -6.56434436e-15,128.418278 0,124 L0,8 C-5.41083001e-16,3.581722 3.581722,8.11624501e-16 8,0 L120,0 L120,0 C120,6.627417 125.372583,12 132,12 C138.627417,12 144,6.627417 144,0 L376,0 Z" id="path-1"></path>
    </defs>
    <g id="ticket" stroke="none" stroke-width="1" fill="none" fill-rule="evenodd">
        <g id="tickct-center" transform="translate(-392.000000, -627.000000)">
            <g id="编组-5备份" transform="translate(360.000000, 595.000000)">
                <g id="usd" transform="translate(32.000000, 32.000000)">
                    <g id="编组-2">
                        <mask id="mask-2" fill="white">
                            <use xlink:href="#path-1"></use>
                        </mask>
                        <path stroke="#000000" stroke-width="2" d="M144.96211,1 L376,1 C377.932997,1 379.682997,1.78350169 380.949747,3.05025253 C382.216498,4.31700338 383,6.06700338 383,8 L383,8 L383,124 C383,125.932997 382.216498,127.682997 380.949747,128.949747 C379.682997,130.216498 377.932997,131 376,131 L376,131 L144.96211,131 C144.719351,127.808797 143.324425,124.939649 141.192388,122.807612 C138.839851,120.455075 135.589851,119 132,119 C128.410149,119 125.160149,120.455075 122.807612,122.807612 C120.675575,124.939649 119.280649,127.808797 119.03789,131 L119.03789,131 L8,131 C6.06700338,131 4.31700338,130.216498 3.05025253,128.949747 C1.78350169,127.682997 1,125.932997 1,124 L1,124 L1,8 C1,6.06700338 1.78350169,4.31700338 3.05025253,3.05025253 C4.31700338,1.78350169 6.06700338,1 8,1 L8,1 L119.03789,1 C119.280649,4.19120304 120.675575,7.06035109 122.807612,9.19238816 C125.160149,11.5449254 128.410149,13 132,13 C135.589851,13 138.839851,11.5449254 141.192388,9.19238816 C143.324425,7.06035109 144.719351,4.19120304 144.96211,1 L144.96211,1 Z"></path>
                        <path d="M364.269954,64 C382.317343,64 397,78.5794586 397,96.5 C397,114.420541 382.317343,129 364.269954,129 C347.881166,129 334.269219,116.976656 331.905151,101.347261 C331.055837,102.126019 330.015564,102.85551 328.263985,102.85551 C326.163008,102.85551 325.083959,101.805987 324.132078,100.880255 C323.2615,100.033185 322.503497,99.2999682 321,99.2527707 L321,99.2527707 L321,98.0508917 C323.000077,98.1009873 324.051608,99.1182166 324.979723,100.021178 C325.879487,100.896815 326.657086,101.652803 328.263985,101.652803 C329.871302,101.652803 330.648484,100.896815 331.548664,100.021178 C331.603701,99.9677707 331.659154,99.9143631 331.714608,99.8605414 C331.611623,98.8693949 331.559505,97.863758 331.548664,96.8485987 C330.761059,97.5002548 329.77874,98.0459236 328.263985,98.0459236 C326.163008,98.0459236 325.083959,96.9964013 324.132078,96.0706688 C323.2615,95.2235987 322.503497,94.4903822 321,94.4435987 L321,94.4435987 L321,93.2413057 C323.000077,93.2914013 324.051608,94.3090446 324.979723,95.2120064 C325.879487,96.0872293 326.657086,96.8436306 328.263985,96.8436306 C329.871302,96.8436306 330.648484,96.0872293 331.548664,95.2120064 C331.557003,95.2041401 331.565342,95.1958599 331.573681,95.1879936 C331.620379,94.0217197 331.726282,92.8703503 331.89431,91.7384395 C331.047082,92.5138854 330.008059,93.2367516 328.263985,93.2367516 C326.163008,93.2367516 325.083959,92.1872293 324.132078,91.2614968 C323.2615,90.4144268 322.503497,89.6812102 321,89.6344268 L321,89.6344268 L321,88.4321338 C323.000077,88.4822293 324.051608,89.4998726 324.979723,90.4024204 C325.879487,91.2780573 326.657086,92.0340446 328.263985,92.0340446 C329.871302,92.0340446 330.648484,91.2780573 331.548664,90.4024204 C331.773397,90.1842357 332.006051,89.9590127 332.256217,89.7420701 C335.397468,75.0545541 348.556197,64 364.269954,64 Z M364.269954,65.2420382 C349.593135,65.2420382 337.232435,75.2677707 333.763467,88.7840446 C334.297571,88.5654459 334.921735,88.4271656 335.680989,88.4271656 C337.782383,88.4271656 338.861432,89.4766879 339.813314,90.4024204 C340.713494,91.2780573 341.491093,92.0340446 343.097993,92.0340446 L343.097993,92.0340446 L343.097993,93.2367516 C340.996599,93.2367516 339.917966,92.1872293 338.966085,91.2614968 C338.065488,90.3858599 337.288305,89.6294586 335.680989,89.6294586 C334.674488,89.6294586 333.993203,89.9267197 333.403645,90.3635032 C333.16015,91.5711783 332.994207,92.8053503 332.895808,94.0589809 C333.599191,93.5857643 334.469769,93.2367516 335.680989,93.2367516 C337.782383,93.2367516 338.861432,94.2858599 339.813314,95.2120064 C340.713494,96.0872293 341.491093,96.8436306 343.097993,96.8436306 L343.097993,96.8436306 L343.097993,98.0459236 C340.996599,98.0459236 339.917966,96.9964013 338.966085,96.0706688 C338.065488,95.1950318 337.288305,94.4390446 335.680989,94.4390446 C334.324256,94.4390446 333.559165,94.9801592 332.812002,95.6748726 C332.804498,95.9497771 332.790738,96.2234395 332.790738,96.5 C332.790738,97.2986306 332.831182,98.0877389 332.890805,98.871879 C333.595022,98.3974204 334.46685,98.0459236 335.680989,98.0459236 C337.782383,98.0459236 338.861432,99.0954459 339.813314,100.021178 C340.713494,100.896815 341.491093,101.652803 343.097993,101.652803 L343.097993,101.652803 L343.097993,102.85551 C340.996599,102.85551 339.917966,101.805987 338.966085,100.880255 C338.065488,100.004618 337.288305,99.2482166 335.680989,99.2482166 C334.455593,99.2482166 333.7126,99.6891401 333.030064,100.286146 C334.918817,115.741656 348.203463,127.757962 364.269954,127.757962 C381.627719,127.757962 395.74917,113.735764 395.74917,96.5 C395.74917,79.2642357 381.627719,65.2420382 364.269954,65.2420382 Z M341.088518,104.833333 C344.475262,114.069106 353.474913,120.686992 364.010989,120.686992 C374.547065,120.686992 383.546716,114.069106 386.93346,104.833333 L386.93346,104.833333 L387.813187,104.833333 C384.385142,114.52439 375.009645,121.5 364.010989,121.5 C353.008203,121.5 343.632706,114.52439 340.208791,104.833333 L340.208791,104.833333 Z M364.428373,110.666667 L365.202838,112.3125 L366.934066,112.57625 L365.681418,113.8575 L365.976906,115.666667 L364.428373,114.8125 L362.879839,115.666667 L363.175725,113.8575 L361.923077,112.57625 L363.654305,112.3125 L364.428373,110.666667 Z M353.57123,106.5 L354.345695,108.145833 L356.076923,108.409583 L354.824275,109.690833 L355.119763,111.5 L353.57123,110.645833 L352.022697,111.5 L352.318582,109.690833 L351.065934,108.409583 L352.797162,108.145833 L353.57123,106.5 Z M374.450351,106.5 L375.224816,108.145833 L376.956044,108.409583 L375.703396,109.690833 L375.998884,111.5 L374.450351,110.645833 L372.901817,111.5 L373.197703,109.690833 L371.945055,108.409583 L373.676283,108.145833 L374.450351,106.5 Z M380.296703,92.3333333 L379.547259,98.2108363 C379.547259,98.4388356 379.460664,98.6272926 379.28826,98.7762073 C379.115463,98.9255427 378.922591,99 378.709645,99 L378.709645,99 L372.78022,99 L373.518643,92.7809187 L373.199027,92.3333333 L380.296703,92.3333333 Z M371.945055,92.3333333 L371.843993,93.4640754 L368.284366,93.4640754 L368.071013,94.9246172 L371.406058,94.9246172 L371.304996,96.0553592 L367.846431,96.0553592 L367.633078,97.869258 L371.406058,97.869258 L371.304996,99 L365.263736,99 L366.128378,92.7809187 L365.802733,92.3333333 L371.945055,92.3333333 Z M363.593407,92.3333333 L363.371302,94.2532391 L361.126878,94.2532391 L361.243775,93.4640754 L359.104558,93.4640754 L358.765556,95.1601885 L363.254405,95.1601885 L362.810196,98.2108363 C362.810196,98.3206293 362.784729,98.4245331 362.734213,98.5229682 C362.683697,98.6209827 362.615646,98.7055359 362.529643,98.7762073 C362.44364,98.8468787 362.348452,98.9019855 362.243245,98.9411072 C362.138038,98.9802288 362.026985,99 361.910088,99 L361.910088,99 L356.076923,99 L356.299028,97.1861013 L356.638029,97.6454653 L360.682669,97.6454653 L360.904773,96.2909305 L356.415925,96.2909305 L356.977031,92.3333333 L363.593407,92.3333333 Z M350.579775,92.3333333 L349.841352,97.869258 L352.376237,97.869258 L353.125681,92.6631331 L352.695853,92.3333333 L355.241758,92.3333333 L354.393123,99 L348.364506,99 C348.151167,99 347.991752,98.925122 347.885083,98.7762073 C347.778413,98.6272926 347.725275,98.4388356 347.725275,98.2108363 L347.725275,98.2108363 L348.463698,92.6631331 L348.144082,92.3333333 L350.579775,92.3333333 Z M378.180626,93.4640754 L375.63472,93.4640754 L375.00651,97.869258 L377.541394,97.869258 L378.180626,93.4640754 Z M364.010989,71.5 C375.009645,71.5 384.385142,78.4756098 387.813187,88.1666667 L387.813187,88.1666667 L386.93346,88.1666667 C383.546716,78.9308943 374.547065,72.3130081 364.010989,72.3130081 C353.474913,72.3130081 344.475262,78.9308943 341.088518,88.1666667 L341.088518,88.1666667 L340.208791,88.1666667 C343.632706,78.4756098 353.008203,71.5 364.010989,71.5 Z M353.57123,81.5 L354.345695,83.1458333 L356.076923,83.4095833 L354.824275,84.6908333 L355.119763,86.5 L353.57123,85.6458333 L352.022697,86.5 L352.318582,84.6908333 L351.065934,83.4095833 L352.797162,83.1458333 L353.57123,81.5 Z M374.450351,81.5 L375.224816,83.1458333 L376.956044,83.4095833 L375.703396,84.6908333 L375.998884,86.5 L374.450351,85.6458333 L372.901817,86.5 L373.197703,84.6908333 L371.945055,83.4095833 L373.676283,83.1458333 L374.450351,81.5 Z M364.428373,77.3333333 L365.202838,78.9791667 L366.934066,79.2429167 L365.681418,80.5241667 L365.976906,82.3333333 L364.428373,81.4791667 L362.879839,82.3333333 L363.175725,80.5241667 L361.923077,79.2429167 L363.654305,78.9791667 L364.428373,77.3333333 Z" id="形状结合" fill="#787878" mask="url(#mask-2)" transform="translate(359.000000, 96.500000) rotate(-45.000000) translate(-359.000000, -96.500000) "></path>
                        <text id="假期兑换券" mask="url(#mask-2)" font-family="PingFangSC-Semibold, PingFang SC" font-size="24" font-weight="500" letter-spacing="6" fill="#000000">
                            <tspan x="184" y="68">假期兑换券</tspan>
                        </text>
                        <text id="Holiday-Redemption-V" mask="url(#mask-2)" font-family="HelveticaNeue, Helvetica Neue" font-size="10" font-weight="normal" letter-spacing="0.3" fill="#000000">
                            <tspan x="184" y="87">Holiday Redemption Vouchers</tspan>
                        </text>
                        <line x1="132.25" y1="32" x2="132.75" y2="100" id="路径-3" stroke="#2E03F3" stroke-width="2" stroke-dasharray="4" mask="url(#mask-2)"></line>
                        <path d="M83.307757,40 L78.3997981,40 C76.9123338,40 75.7075551,41.2114286 75.7075551,42.7040816 L75.7075551,62.6818367 L56.293791,62.6818367 L56.293791,42.7040816 C56.293791,41.2100765 57.4999159,40 58.986034,40 L56.293791,40 L51.3844859,40 C49.8983678,40 48.692243,41.2114286 48.692243,42.7040816 L48.692243,90.2959184 C48.692243,91.7899235 47.4874642,93 46,93 L48.692243,93 L53.601548,93 C55.0890123,93 56.293791,91.7899235 56.293791,90.2959184 L56.293791,70.3168112 L75.7075551,70.3168112 L75.7075551,90.2959184 C75.7075551,91.7899235 74.5014303,93 73.0153121,93 L75.7075551,93 L80.6155141,93 C82.1029783,93 83.307757,91.7899235 83.307757,90.2959184 L83.307757,42.7040816 C83.307757,41.2100765 84.5138819,40 86,40 L83.307757,40 Z" id="Fill-1" fill="#C4C4C4" mask="url(#mask-2)"></path>
                    </g>
                    <circle id="椭圆形" stroke="#C4C4C4" cx="66" cy="66" r="42.5"></circle>
                </g>
            </g>
        </g>
    </g>
</svg>