<?xml version="1.0" encoding="UTF-8"?>
<svg width="384px" height="132px" viewBox="0 0 384 132" version="1.1" xmlns="http://www.w3.org/2000/svg" xmlns:xlink="http://www.w3.org/1999/xlink">
    <title>vouchers</title>
    <defs>
        <linearGradient x1="50%" y1="0%" x2="50%" y2="100%" id="linearGradient-1">
            <stop stop-color="#FF26B3" offset="0%"></stop>
            <stop stop-color="#FFB38B" offset="100%"></stop>
        </linearGradient>
        <linearGradient x1="50%" y1="0%" x2="50%" y2="100%" id="linearGradient-2">
            <stop stop-color="#FF26B3" offset="0%"></stop>
            <stop stop-color="#FFB38B" offset="100%"></stop>
        </linearGradient>
    </defs>
    <g id="ticket" stroke="none" stroke-width="1" fill="none" fill-rule="evenodd">
        <g id="tickct" transform="translate(-392.000000, -407.000000)">
            <g id="编组-5" transform="translate(360.000000, 375.000000)">
                <g id="vouchers" transform="translate(32.000000, 32.000000)">
                    <g id="编组-2">
                        <path d="M144.96211,1 L376,1 C377.932997,1 379.682997,1.78350169 380.949747,3.05025253 C382.216498,4.31700338 383,6.06700338 383,8 L383,8 L383,124 C383,125.932997 382.216498,127.682997 380.949747,128.949747 C379.682997,130.216498 377.932997,131 376,131 L376,131 L144.96211,131 C144.719351,127.808797 143.324425,124.939649 141.192388,122.807612 C138.839851,120.455075 135.589851,119 132,119 C128.410149,119 125.160149,120.455075 122.807612,122.807612 C120.675575,124.939649 119.280649,127.808797 119.03789,131 L119.03789,131 L8,131 C6.06700338,131 4.31700338,130.216498 3.05025253,128.949747 C1.78350169,127.682997 1,125.932997 1,124 L1,124 L1,8 C1,6.06700338 1.78350169,4.31700338 3.05025253,3.05025253 C4.31700338,1.78350169 6.06700338,1 8,1 L8,1 L119.03789,1 C119.280649,4.19120304 120.675575,7.06035109 122.807612,9.19238816 C125.160149,11.5449254 128.410149,13 132,13 C135.589851,13 138.839851,11.5449254 141.192388,9.19238816 C143.324425,7.06035109 144.719351,4.19120304 144.96211,1 L144.96211,1 Z" id="形状结合" stroke="#000000" stroke-width="2" fill="#FFFFFF"></path>
                        <text id="假期兑换券" font-family="PingFangSC-Semibold, PingFang SC" font-size="24" font-weight="500" letter-spacing="6" fill="#000000">
                            <tspan x="184" y="68">假期兑换券</tspan>
                        </text>
                        <text id="Holiday-Redemption-V" font-family="HelveticaNeue, Helvetica Neue" font-size="10" font-weight="normal" letter-spacing="0.3" fill="#000000">
                            <tspan x="184" y="87">Holiday Redemption Vouchers</tspan>
                        </text>
                        <line x1="132.25" y1="32" x2="132.75" y2="100" id="路径-3" stroke="#2E03F3" stroke-width="2" stroke-dasharray="4"></line>
                        <path d="M83.307757,40 L78.3997981,40 C76.9123338,40 75.7075551,41.2114286 75.7075551,42.7040816 L75.7075551,62.6818367 L56.293791,62.6818367 L56.293791,42.7040816 C56.293791,41.2100765 57.4999159,40 58.986034,40 L56.293791,40 L51.3844859,40 C49.8983678,40 48.692243,41.2114286 48.692243,42.7040816 L48.692243,90.2959184 C48.692243,91.7899235 47.4874642,93 46,93 L48.692243,93 L53.601548,93 C55.0890123,93 56.293791,91.7899235 56.293791,90.2959184 L56.293791,70.3168112 L75.7075551,70.3168112 L75.7075551,90.2959184 C75.7075551,91.7899235 74.5014303,93 73.0153121,93 L75.7075551,93 L80.6155141,93 C82.1029783,93 83.307757,91.7899235 83.307757,90.2959184 L83.307757,42.7040816 C83.307757,41.2100765 84.5138819,40 86,40 L83.307757,40 Z" id="Fill-1" fill="url(#linearGradient-1)"></path>
                    </g>
                    <circle id="椭圆形" stroke="url(#linearGradient-2)" cx="66" cy="66" r="42.5"></circle>
                </g>
            </g>
        </g>
    </g>
</svg>